<?xml version="1.0" encoding="utf-8"?>
<!-- Generator: Adobe Illustrator 22.0.0, SVG Export Plug-In . SVG Version: 6.00 Build 0)  -->
<svg version="1.1" id="Calque_1" xmlns="http://www.w3.org/2000/svg" xmlns:xlink="http://www.w3.org/1999/xlink" x="0px" y="0px"
	 viewBox="0 0 566.9 255.1" style="enable-background:new 0 0 566.9 255.1;" xml:space="preserve">
<style type="text/css">
	.st0{clip-path:url(#SVGID_2_);fill:#FFC200;}
	.st1{clip-path:url(#SVGID_2_);}
	.st2{opacity:0.6;clip-path:url(#SVGID_4_);}
	.st3{clip-path:url(#SVGID_6_);fill:#FFC200;}
	.st4{opacity:0.8;clip-path:url(#SVGID_4_);}
	.st5{clip-path:url(#SVGID_8_);fill:#FFC200;}
	.st6{fill:#FFC200;}
	.st7{opacity:0.8;clip-path:url(#SVGID_10_);}
	.st8{clip-path:url(#SVGID_12_);}
	.st9{opacity:0.6;clip-path:url(#SVGID_10_);}
	.st10{clip-path:url(#SVGID_14_);}
	.st11{clip-path:url(#SVGID_16_);}
	.st12{clip-path:url(#SVGID_18_);}
	.st13{fill:#2E2F2F;}
	.st14{clip-path:url(#SVGID_20_);}
	.st15{opacity:0.8;clip-path:url(#SVGID_20_);}
	.st16{clip-path:url(#SVGID_22_);}
	.st17{opacity:0.6;clip-path:url(#SVGID_20_);}
	.st18{clip-path:url(#SVGID_24_);}
</style>
<g>
	<defs>
		<rect id="SVGID_1_" x="6.1" y="9.5" width="554.7" height="119.2"/>
	</defs>
	<clipPath id="SVGID_2_">
		<use xlink:href="#SVGID_1_"  style="overflow:visible;"/>
	</clipPath>
	<rect x="43.7" y="9.5" class="st0" width="517.2" height="39.7"/>
	<g class="st1">
		<defs>
			<rect id="SVGID_3_" x="6.1" y="9.5" width="554.7" height="119.2"/>
		</defs>
		<clipPath id="SVGID_4_">
			<use xlink:href="#SVGID_3_"  style="overflow:visible;"/>
		</clipPath>
		<g class="st2">
			<g>
				<defs>
					<rect id="SVGID_5_" x="26.2" y="75.4" width="331.1" height="55.2"/>
				</defs>
				<clipPath id="SVGID_6_">
					<use xlink:href="#SVGID_5_"  style="overflow:visible;"/>
				</clipPath>
				<rect x="43.7" y="88.9" class="st3" width="296.2" height="39.7"/>
			</g>
		</g>
		<g class="st4">
			<g>
				<defs>
					<rect id="SVGID_7_" x="26.2" y="35.7" width="445.6" height="55.2"/>
				</defs>
				<clipPath id="SVGID_8_">
					<use xlink:href="#SVGID_7_"  style="overflow:visible;"/>
				</clipPath>
				<rect x="43.7" y="49.2" class="st5" width="410.7" height="39.7"/>
			</g>
		</g>
	</g>
	<g class="st1">
		<path class="st6" d="M14.4,25.7h-2.3V22h6.4v17h-4.1V25.7z"/>
	</g>
	<g class="st1">
		<defs>
			<rect id="SVGID_9_" x="6.1" y="9.5" width="554.7" height="119.2"/>
		</defs>
		<clipPath id="SVGID_10_">
			<use xlink:href="#SVGID_9_"  style="overflow:visible;"/>
		</clipPath>
		<g class="st7">
			<g>
				<defs>
					<rect id="SVGID_11_" x="-10.6" y="40.5" width="90.3" height="54"/>
				</defs>
				<clipPath id="SVGID_12_">
					<use xlink:href="#SVGID_11_"  style="overflow:visible;"/>
				</clipPath>
				<g class="st8">
					<path class="st6" d="M7.8,75.3c3.6-3,7.4-5.9,7.4-8.8c0-1.2-0.6-2-1.8-2c-1.2,0-1.9,0.9-1.9,2.5H7.7c0.1-4.1,2.8-5.9,5.9-5.9
						c3.9,0,5.6,2.3,5.6,5.1c0,3.7-3.3,6.7-6,8.8h6.3v3.2H7.8V75.3z"/>
				</g>
			</g>
		</g>
		<g class="st9">
			<g>
				<defs>
					<rect id="SVGID_13_" x="-11.4" y="80" width="91.1" height="54"/>
				</defs>
				<clipPath id="SVGID_14_">
					<use xlink:href="#SVGID_13_"  style="overflow:visible;"/>
				</clipPath>
				<g class="st10">
					<path class="st6" d="M13.1,100.6c3.6,0,5.5,2,5.5,4.6c0,2.2-1.4,3.4-2.6,3.8v0.1c1.7,0.6,2.9,1.9,2.9,4.1c0,2.9-2,4.9-5.6,4.9
						c-3.5,0-6.1-1.7-6.2-5.5h3.9c0,1.3,0.7,2.2,2.2,2.2c1.2,0,1.9-0.8,1.9-1.9c0-1.5-0.9-2.1-3-2.1h-0.7v-3.2h0.7
						c1.3,0,2.7-0.3,2.7-1.9c0-1.1-0.7-1.8-1.7-1.8c-1.3,0-1.7,0.9-1.8,1.9H7.3C7.4,102.5,9.6,100.6,13.1,100.6z"/>
				</g>
			</g>
		</g>
	</g>
</g>
<g>
	<defs>
		<rect id="SVGID_15_" x="44.4" y="147.9" width="431.8" height="94.5"/>
	</defs>
	<clipPath id="SVGID_16_">
		<use xlink:href="#SVGID_15_"  style="overflow:visible;"/>
	</clipPath>
	<g class="st11">
		<defs>
			<rect id="SVGID_17_" x="44.4" y="147.9" width="431.8" height="94.5"/>
		</defs>
		<clipPath id="SVGID_18_">
			<use xlink:href="#SVGID_17_"  style="overflow:visible;"/>
		</clipPath>
		<g class="st12">
			<path class="st13" d="M89.6,158.1h-6.6v5.4h5.9v1.7h-5.9v5.6h6.6v1.7h-8.7v-16.2h8.7V158.1z"/>
			<path class="st13" d="M102.1,165.4c0-2.6-1.4-3.9-3.6-3.9c-2.2,0-3.7,1.3-3.7,4.1v7.1h-2.1v-12.8h2.1v1.8c0.8-1.3,2.4-2,4.1-2
				c3,0,5.2,1.8,5.2,5.5v7.5h-2.1V165.4z"/>
			<path class="st13" d="M108.1,161.6h-1.7v-1.7h1.7v-3.2h2.1v3.2h3.3v1.7h-3.3v7.5c0,1.3,0.5,1.7,1.8,1.7h1.6v1.8h-1.9
				c-2.3,0-3.5-0.9-3.5-3.5V161.6z"/>
			<path class="st13" d="M118.2,172.6h-2.1v-12.8h2.1v2.1c0.7-1.4,2.1-2.3,4.1-2.3v2.2h-0.6c-2,0-3.6,0.9-3.6,3.9V172.6z"/>
			<path class="st13" d="M130.3,172.8c-3.6,0-6.3-2.6-6.3-6.6c0-4,2.6-6.6,6.3-6.6c3.7,0,6.1,2.6,6.1,6.1c0,0.5,0,0.8-0.1,1.3h-10.2
				c0.2,2.6,2,4,4.1,4c1.9,0,3.1-1,3.6-2.4h2.3C135.5,171,133.5,172.8,130.3,172.8z M126.2,165.3h8.1c0-2.5-1.8-3.9-4-3.9
				C128.1,161.4,126.4,162.8,126.2,165.3z"/>
			<path class="st13" d="M139.7,161.6H138v-1.7h1.7v-3.2h2.1v3.2h3.3v1.7h-3.3v7.5c0,1.3,0.5,1.7,1.8,1.7h1.6v1.8h-1.9
				c-2.3,0-3.5-0.9-3.5-3.5V161.6z"/>
			<path class="st13" d="M147.3,156.4c0-0.8,0.6-1.4,1.4-1.4c0.8,0,1.4,0.6,1.4,1.4s-0.6,1.4-1.4,1.4
				C148,157.8,147.3,157.2,147.3,156.4z M147.7,159.9h2.1v12.8h-2.1V159.9z"/>
			<path class="st13" d="M158.9,172.8c-3.6,0-6.3-2.6-6.3-6.6c0-4,2.6-6.6,6.3-6.6c3.7,0,6.1,2.6,6.1,6.1c0,0.5,0,0.8-0.1,1.3h-10.2
				c0.2,2.6,2,4,4.1,4c1.9,0,3.1-1,3.6-2.4h2.3C164.1,171,162.1,172.8,158.9,172.8z M154.8,165.3h8.1c0-2.5-1.8-3.9-4-3.9
				C156.8,161.4,155,162.8,154.8,165.3z"/>
			<path class="st13" d="M177.2,165.4c0-2.6-1.4-3.9-3.6-3.9c-2.2,0-3.7,1.3-3.7,4.1v7.1h-2.1v-12.8h2.1v1.8c0.8-1.3,2.4-2,4.1-2
				c3,0,5.2,1.8,5.2,5.5v7.5h-2.1V165.4z"/>
			<path class="st13" d="M194.4,159.7c3.2,0,5.2,1.6,5.9,4.3H198c-0.4-1.5-1.7-2.5-3.6-2.5c-2.3,0-4,1.7-4,4.8c0,3.2,1.7,4.8,4,4.8
				c1.9,0,3.1-0.9,3.6-2.5h2.3c-0.7,2.5-2.7,4.3-5.9,4.3c-3.6,0-6.2-2.6-6.2-6.6C188.1,162.2,190.7,159.7,194.4,159.7z"/>
			<path class="st13" d="M203.1,155.4h2.1v6.3c0.8-1.3,2.4-2.1,4.2-2.1c2.8,0,5.1,1.8,5.1,5.5v7.5h-2.1v-7.2c0-2.6-1.4-3.9-3.6-3.9
				c-2.2,0-3.7,1.3-3.7,4.1v7.1h-2.1V155.4z"/>
			<path class="st13" d="M223.2,159.7c2.4,0,4,1.2,4.7,2.5v-2.3h2.1v12.8H228v-2.4c-0.8,1.4-2.4,2.6-4.8,2.6c-3.4,0-6-2.7-6-6.6
				C217.2,162.2,219.8,159.7,223.2,159.7z M223.6,161.5c-2.3,0-4.3,1.7-4.3,4.7c0,3,2,4.8,4.3,4.8c2.3,0,4.3-1.7,4.3-4.7
				C228,163.3,226,161.5,223.6,161.5z"/>
			<path class="st13" d="M245,172.6h-2.1v-1.9c-0.8,1.3-2.4,2.1-4.1,2.1c-2.9,0-5.2-1.8-5.2-5.5v-7.5h2.1v7.2c0,2.6,1.4,3.9,3.6,3.9
				c2.2,0,3.7-1.3,3.7-4.1v-7h2.1V172.6z"/>
			<path class="st13" d="M249,161.6h-1.7v-1.7h1.7V159c0-2.8,1.4-4.1,4.7-4.1v1.8c-1.9,0-2.5,0.7-2.5,2.4v0.9h2.7v1.7h-2.7v11H249
				V161.6z"/>
			<path class="st13" d="M256.6,161.6H255v-1.7h1.7V159c0-2.8,1.4-4.1,4.7-4.1v1.8c-1.9,0-2.5,0.7-2.5,2.4v0.9h2.7v1.7h-2.7v11h-2.1
				V161.6z"/>
			<path class="st13" d="M269.1,159.7c2.4,0,4,1.2,4.7,2.5v-2.3h2.1v12.8h-2.1v-2.4c-0.8,1.4-2.4,2.6-4.8,2.6c-3.4,0-6-2.7-6-6.6
				C263.1,162.2,265.7,159.7,269.1,159.7z M269.5,161.5c-2.3,0-4.3,1.7-4.3,4.7c0,3,2,4.8,4.3,4.8c2.3,0,4.3-1.7,4.3-4.7
				C273.9,163.3,271.9,161.5,269.5,161.5z"/>
			<path class="st13" d="M284.9,159.7c2.3,0,4,1.2,4.7,2.5v-2.3h2.1v13c0,3.5-2.4,6-6.1,6c-3.4,0-5.7-1.7-6.2-4.4h2.1
				c0.5,1.5,2,2.6,4.1,2.6c2.3,0,4-1.4,4-4.2v-2.7c-0.8,1.4-2.4,2.6-4.7,2.6c-3.4,0-6-2.7-6-6.6
				C278.8,162.2,281.4,159.7,284.9,159.7z M285.3,161.5c-2.3,0-4.3,1.7-4.3,4.7c0,3,2,4.8,4.3,4.8c2.3,0,4.3-1.7,4.3-4.7
				C289.6,163.3,287.6,161.5,285.3,161.5z"/>
			<path class="st13" d="M300.8,172.8c-3.6,0-6.3-2.6-6.3-6.6c0-4,2.6-6.6,6.3-6.6c3.7,0,6.1,2.6,6.1,6.1c0,0.5,0,0.8-0.1,1.3h-10.2
				c0.2,2.6,2,4,4.1,4c1.9,0,3.1-1,3.6-2.4h2.3C306,171,304,172.8,300.8,172.8z M296.7,165.3h8.1c0-2.5-1.8-3.9-4-3.9
				C298.7,161.4,297,162.8,296.7,165.3z"/>
			<path class="st13" d="M321.2,159.7c2.3,0,4,1.2,4.7,2.5v-2.3h2.1v13c0,3.5-2.4,6-6.1,6c-3.4,0-5.7-1.7-6.2-4.4h2.1
				c0.5,1.5,2,2.6,4.1,2.6c2.3,0,4-1.4,4-4.2v-2.7c-0.8,1.4-2.4,2.6-4.7,2.6c-3.4,0-6-2.7-6-6.6
				C315.2,162.2,317.8,159.7,321.2,159.7z M321.6,161.5c-2.3,0-4.3,1.7-4.3,4.7c0,3,2,4.8,4.3,4.8s4.3-1.7,4.3-4.7
				C326,163.3,324,161.5,321.6,161.5z"/>
			<path class="st13" d="M336.9,159.7c2.4,0,4,1.2,4.7,2.5v-2.3h2.1v12.8h-2.1v-2.4c-0.8,1.4-2.4,2.6-4.8,2.6c-3.4,0-6-2.7-6-6.6
				C330.9,162.2,333.5,159.7,336.9,159.7z M337.4,161.5c-2.3,0-4.3,1.7-4.3,4.7c0,3,2,4.8,4.3,4.8s4.3-1.7,4.3-4.7
				C341.7,163.3,339.7,161.5,337.4,161.5z"/>
			<path class="st13" d="M355.2,161.6l-6.2,9.3h6.3v1.7h-8.7v-1.7l6.2-9.3h-6.1v-1.7h8.6V161.6z"/>
		</g>
	</g>
	<g class="st11">
		<path class="st13" d="M94.5,199.4c0,5-3.3,8.1-8.6,8.1h-5v-16.2h5C91.2,191.3,94.5,194.4,94.5,199.4z M85.9,205.8
			c4.2,0,6.4-2.4,6.4-6.3c0-4-2.2-6.4-6.4-6.4h-2.9v12.8H85.9z"/>
		<path class="st13" d="M102.8,207.7c-3.6,0-6.3-2.6-6.3-6.6c0-4,2.6-6.6,6.3-6.6c3.7,0,6.1,2.6,6.1,6.1c0,0.5,0,0.8-0.1,1.3H98.7
			c0.2,2.6,2,4,4.1,4c1.9,0,3.1-1,3.6-2.4h2.3C108,205.9,106,207.7,102.8,207.7z M98.7,200.2h8.1c0-2.5-1.8-3.9-4-3.9
			C100.6,196.3,98.9,197.7,98.7,200.2z M105,189.3v1.8l-5,2.7v-1.6L105,189.3z"/>
		<path class="st13" d="M118.6,194.6c3.4,0,6,2.6,6,6.5c0,4-2.6,6.6-6,6.6c-2.3,0-4-1.3-4.8-2.6v8.4h-2.1v-18.8h2.1v2.4
			C114.6,195.8,116.3,194.6,118.6,194.6z M118.1,196.4c-2.3,0-4.3,1.8-4.3,4.7c0,3,2,4.7,4.3,4.7c2.4,0,4.3-1.8,4.3-4.8
			C122.5,198.1,120.5,196.4,118.1,196.4z"/>
		<path class="st13" d="M132.7,194.6c2.4,0,4,1.2,4.7,2.5v-2.3h2.1v12.8h-2.1v-2.4c-0.8,1.4-2.4,2.6-4.8,2.6c-3.4,0-6-2.7-6-6.6
			C126.6,197.1,129.3,194.6,132.7,194.6z M133.1,196.4c-2.3,0-4.3,1.7-4.3,4.7c0,3,2,4.8,4.3,4.8c2.3,0,4.3-1.7,4.3-4.7
			C137.4,198.2,135.4,196.4,133.1,196.4z"/>
		<path class="st13" d="M152.5,200.3c0-2.6-1.4-3.9-3.6-3.9c-2.2,0-3.7,1.3-3.7,4.1v7.1h-2.1v-12.8h2.1v1.8c0.8-1.3,2.4-2,4.1-2
			c3,0,5.2,1.8,5.2,5.5v7.5h-2.1V200.3z"/>
		<path class="st13" d="M167.4,200.3c0-2.6-1.4-3.9-3.6-3.9c-2.2,0-3.7,1.3-3.7,4.1v7.1H158v-12.8h2.1v1.8c0.8-1.3,2.4-2,4.1-2
			c3,0,5.2,1.8,5.2,5.5v7.5h-2.1V200.3z"/>
		<path class="st13" d="M178.2,194.6c2.4,0,4,1.2,4.7,2.5v-2.3h2.1v12.8h-2.1v-2.4c-0.8,1.4-2.4,2.6-4.8,2.6c-3.4,0-6-2.7-6-6.6
			C172.1,197.1,174.8,194.6,178.2,194.6z M178.6,196.4c-2.3,0-4.3,1.7-4.3,4.7c0,3,2,4.8,4.3,4.8c2.3,0,4.3-1.7,4.3-4.7
			C182.9,198.2,180.9,196.4,178.6,196.4z"/>
		<path class="st13" d="M193.9,194.6c2.3,0,4,1.2,4.7,2.5v-2.3h2.1v13c0,3.5-2.4,6-6.1,6c-3.4,0-5.7-1.7-6.2-4.4h2.1
			c0.5,1.5,2,2.6,4.1,2.6c2.3,0,4-1.4,4-4.2v-2.7c-0.8,1.4-2.4,2.6-4.7,2.6c-3.4,0-6.1-2.7-6.1-6.6
			C187.9,197.1,190.5,194.6,193.9,194.6z M194.3,196.4c-2.3,0-4.3,1.7-4.3,4.7c0,3,2,4.8,4.3,4.8c2.3,0,4.3-1.7,4.3-4.7
			C198.7,198.2,196.7,196.4,194.3,196.4z"/>
		<path class="st13" d="M209.9,207.7c-3.6,0-6.3-2.6-6.3-6.6c0-4,2.6-6.6,6.3-6.6c3.7,0,6.1,2.6,6.1,6.1c0,0.5,0,0.8-0.1,1.3h-10.2
			c0.2,2.6,2,4,4.1,4c1.9,0,3.1-1,3.6-2.4h2.3C215.1,205.9,213.1,207.7,209.9,207.7z M205.8,200.2h8.1c0-2.5-1.8-3.9-4-3.9
			C207.7,196.3,206,197.7,205.8,200.2z"/>
		<path class="st13" d="M230.4,194.6c3.2,0,5.2,1.6,5.9,4.3H234c-0.4-1.5-1.7-2.5-3.6-2.5c-2.3,0-4,1.7-4,4.8c0,3.2,1.7,4.8,4,4.8
			c1.9,0,3.1-0.9,3.6-2.5h2.3c-0.7,2.5-2.7,4.3-5.9,4.3c-3.6,0-6.2-2.6-6.2-6.6C224.2,197.1,226.8,194.6,230.4,194.6z"/>
		<path class="st13" d="M239.1,190.3h2.1v6.3c0.8-1.3,2.4-2.1,4.2-2.1c2.8,0,5.1,1.8,5.1,5.5v7.5h-2.1v-7.2c0-2.6-1.4-3.9-3.6-3.9
			c-2.2,0-3.7,1.3-3.7,4.1v7.1h-2.1V190.3z"/>
		<path class="st13" d="M259.3,194.6c2.4,0,4,1.2,4.7,2.5v-2.3h2.1v12.8H264v-2.4c-0.8,1.4-2.4,2.6-4.8,2.6c-3.4,0-6-2.7-6-6.6
			C253.2,197.1,255.9,194.6,259.3,194.6z M259.7,196.4c-2.3,0-4.3,1.7-4.3,4.7c0,3,2,4.8,4.3,4.8c2.3,0,4.3-1.7,4.3-4.7
			C264,198.2,262,196.4,259.7,196.4z"/>
		<path class="st13" d="M281.1,207.5h-2.1v-1.9c-0.8,1.3-2.4,2.1-4.1,2.1c-2.9,0-5.2-1.8-5.2-5.5v-7.5h2.1v7.2
			c0,2.6,1.4,3.9,3.6,3.9c2.2,0,3.7-1.3,3.7-4.1v-7h2.1V207.5z"/>
		<path class="st13" d="M285,196.5h-1.7v-1.7h1.7v-0.9c0-2.8,1.4-4.1,4.7-4.1v1.8c-1.9,0-2.5,0.7-2.5,2.4v0.9h2.7v1.7h-2.7v11H285
			V196.5z"/>
		<path class="st13" d="M292.7,196.5H291v-1.7h1.7v-0.9c0-2.8,1.4-4.1,4.7-4.1v1.8c-1.9,0-2.5,0.7-2.5,2.4v0.9h2.7v1.7h-2.7v11h-2.1
			V196.5z"/>
		<path class="st13" d="M305.2,194.6c2.4,0,4,1.2,4.7,2.5v-2.3h2.1v12.8H310v-2.4c-0.8,1.4-2.4,2.6-4.8,2.6c-3.4,0-6-2.7-6-6.6
			C299.2,197.1,301.8,194.6,305.2,194.6z M305.6,196.4c-2.3,0-4.3,1.7-4.3,4.7c0,3,2,4.8,4.3,4.8s4.3-1.7,4.3-4.7
			C310,198.2,308,196.4,305.6,196.4z"/>
		<path class="st13" d="M320.9,194.6c2.3,0,4,1.2,4.7,2.5v-2.3h2.1v13c0,3.5-2.4,6-6.1,6c-3.4,0-5.7-1.7-6.2-4.4h2.1
			c0.5,1.5,2,2.6,4.1,2.6c2.3,0,4-1.4,4-4.2v-2.7c-0.8,1.4-2.4,2.6-4.7,2.6c-3.4,0-6-2.7-6-6.6C314.9,197.1,317.5,194.6,320.9,194.6
			z M321.4,196.4c-2.3,0-4.3,1.7-4.3,4.7c0,3,2,4.8,4.3,4.8s4.3-1.7,4.3-4.7C325.7,198.2,323.7,196.4,321.4,196.4z"/>
		<path class="st13" d="M336.9,207.7c-3.6,0-6.3-2.6-6.3-6.6c0-4,2.6-6.6,6.3-6.6c3.7,0,6.1,2.6,6.1,6.1c0,0.5,0,0.8-0.1,1.3h-10.2
			c0.2,2.6,2,4,4.1,4c1.9,0,3.1-1,3.6-2.4h2.3C342.1,205.9,340.1,207.7,336.9,207.7z M332.8,200.2h8.1c0-2.5-1.8-3.9-4-3.9
			C334.8,196.3,333,197.7,332.8,200.2z"/>
	</g>
	<g class="st11">
		<defs>
			<rect id="SVGID_19_" x="44.4" y="147.9" width="431.8" height="94.5"/>
		</defs>
		<clipPath id="SVGID_20_">
			<use xlink:href="#SVGID_19_"  style="overflow:visible;"/>
		</clipPath>
		<g class="st14">
			<path class="st13" d="M80.8,226.2h2.1v16.2h-2.1V226.2z"/>
			<path class="st13" d="M95.9,235.2c0-2.6-1.4-3.9-3.6-3.9c-2.2,0-3.7,1.3-3.7,4.1v7.1h-2.1v-12.8h2.1v1.8c0.8-1.3,2.4-2,4.1-2
				c3,0,5.2,1.8,5.2,5.5v7.5h-2.1V235.2z"/>
			<path class="st13" d="M106,242.6c-3,0-5.1-1.6-5.2-4h2.2c0.1,1.2,1.2,2.2,3,2.2c1.7,0,2.6-0.8,2.6-1.9c0-2.8-7.5-1.2-7.5-5.9
				c0-2,1.8-3.6,4.7-3.6c2.8,0,4.7,1.5,4.8,4h-2.1c-0.1-1.3-1.1-2.2-2.8-2.2c-1.6,0-2.5,0.7-2.5,1.8c0,3,7.4,1.4,7.5,5.9
				C110.6,241,108.8,242.6,106,242.6z"/>
			<path class="st13" d="M114.1,231.4h-1.7v-1.7h1.7v-3.2h2.1v3.2h3.3v1.7h-3.3v7.5c0,1.3,0.5,1.7,1.8,1.7h1.6v1.8h-1.9
				c-2.3,0-3.5-0.9-3.5-3.5V231.4z"/>
			<path class="st13" d="M127.3,229.5c2.4,0,4,1.2,4.7,2.5v-2.3h2.1v12.8h-2.1V240c-0.8,1.4-2.4,2.6-4.8,2.6c-3.4,0-6-2.7-6-6.6
				C121.3,232,123.9,229.5,127.3,229.5z M127.7,231.3c-2.3,0-4.3,1.7-4.3,4.7c0,3,2,4.8,4.3,4.8c2.3,0,4.3-1.7,4.3-4.7
				C132.1,233.1,130.1,231.3,127.7,231.3z"/>
			<path class="st13" d="M137.8,225.2h2.1v17.2h-2.1V225.2z"/>
			<path class="st13" d="M143.5,225.2h2.1v17.2h-2.1V225.2z"/>
			<path class="st13" d="M154.5,229.5c2.4,0,4,1.2,4.7,2.5v-2.3h2.1v12.8h-2.1V240c-0.8,1.4-2.4,2.6-4.8,2.6c-3.4,0-6-2.7-6-6.6
				C148.4,232,151.1,229.5,154.5,229.5z M154.9,231.3c-2.3,0-4.3,1.7-4.3,4.7c0,3,2,4.8,4.3,4.8c2.3,0,4.3-1.7,4.3-4.7
				C159.2,233.1,157.2,231.3,154.9,231.3z"/>
			<path class="st13" d="M165.4,231.4h-1.7v-1.7h1.7v-3.2h2.1v3.2h3.3v1.7h-3.3v7.5c0,1.3,0.5,1.7,1.8,1.7h1.6v1.8H169
				c-2.3,0-3.5-0.9-3.5-3.5V231.4z"/>
			<path class="st13" d="M173.1,226.1c0-0.8,0.6-1.4,1.4-1.4c0.8,0,1.4,0.6,1.4,1.4s-0.6,1.4-1.4,1.4
				C173.7,227.6,173.1,227,173.1,226.1z M173.4,229.7h2.1v12.8h-2.1V229.7z"/>
			<path class="st13" d="M184.7,242.6c-3.6,0-6.4-2.6-6.4-6.6c0-4,2.8-6.6,6.4-6.6c3.6,0,6.4,2.5,6.4,6.6
				C191.2,240.1,188.3,242.6,184.7,242.6z M184.7,240.8c2.2,0,4.4-1.5,4.4-4.7c0-3.2-2.1-4.7-4.3-4.7c-2.2,0-4.3,1.5-4.3,4.7
				C180.5,239.2,182.5,240.8,184.7,240.8z"/>
			<path class="st13" d="M203.4,235.2c0-2.6-1.4-3.9-3.6-3.9c-2.2,0-3.7,1.3-3.7,4.1v7.1H194v-12.8h2.1v1.8c0.8-1.3,2.4-2,4.1-2
				c3,0,5.2,1.8,5.2,5.5v7.5h-2.1V235.2z"/>
			<path class="st13" d="M220.3,229.5c3.2,0,5.2,1.6,5.9,4.3H224c-0.4-1.5-1.7-2.5-3.6-2.5c-2.3,0-4,1.7-4,4.8c0,3.2,1.7,4.8,4,4.8
				c1.9,0,3.1-0.9,3.6-2.5h2.3c-0.7,2.5-2.7,4.3-5.9,4.3c-3.6,0-6.2-2.6-6.2-6.6C214.1,232,216.7,229.5,220.3,229.5z"/>
			<path class="st13" d="M229,225.2h2.1v6.3c0.8-1.3,2.4-2.1,4.2-2.1c2.8,0,5.1,1.8,5.1,5.5v7.5h-2.1v-7.2c0-2.6-1.4-3.9-3.6-3.9
				c-2.2,0-3.7,1.3-3.7,4.1v7.1H229V225.2z"/>
			<path class="st13" d="M249.2,229.5c2.4,0,4,1.2,4.7,2.5v-2.3h2.1v12.8h-2.1V240c-0.8,1.4-2.4,2.6-4.8,2.6c-3.4,0-6-2.7-6-6.6
				C243.1,232,245.8,229.5,249.2,229.5z M249.6,231.3c-2.3,0-4.3,1.7-4.3,4.7c0,3,2,4.8,4.3,4.8c2.3,0,4.3-1.7,4.3-4.7
				C253.9,233.1,251.9,231.3,249.6,231.3z"/>
			<path class="st13" d="M271,242.4h-2.1v-1.9c-0.8,1.3-2.4,2.1-4.1,2.1c-2.9,0-5.2-1.8-5.2-5.5v-7.5h2.1v7.2c0,2.6,1.4,3.9,3.6,3.9
				c2.2,0,3.7-1.3,3.7-4.1v-7h2.1V242.4z"/>
			<path class="st13" d="M274.9,231.4h-1.7v-1.7h1.7v-0.9c0-2.8,1.4-4.1,4.7-4.1v1.8c-1.9,0-2.5,0.7-2.5,2.4v0.9h2.7v1.7h-2.7v11
				h-2.1V231.4z"/>
			<path class="st13" d="M282.6,231.4h-1.7v-1.7h1.7v-0.9c0-2.8,1.4-4.1,4.7-4.1v1.8c-1.9,0-2.5,0.7-2.5,2.4v0.9h2.7v1.7h-2.7v11
				h-2.1V231.4z"/>
			<path class="st13" d="M295.4,242.6c-3.6,0-6.3-2.6-6.3-6.6c0-4,2.6-6.6,6.3-6.6c3.7,0,6.1,2.6,6.1,6.1c0,0.5,0,0.8-0.1,1.3h-10.2
				c0.2,2.6,2,4,4.1,4c1.9,0,3.1-1,3.6-2.4h2.3C300.6,240.8,298.5,242.6,295.4,242.6z M291.3,235.1h8.1c0-2.5-1.8-3.9-4-3.9
				C293.2,231.2,291.5,232.6,291.3,235.1z"/>
			<path class="st13" d="M315.8,242.6c-3.6,0-6.3-2.6-6.3-6.6c0-4,2.6-6.6,6.3-6.6c3.7,0,6.1,2.6,6.1,6.1c0,0.5,0,0.8-0.1,1.3h-10.2
				c0.2,2.6,2,4,4.1,4c1.9,0,3.1-1,3.6-2.4h2.3C321,240.8,319,242.6,315.8,242.6z M311.7,235.1h8.1c0-2.5-1.8-3.9-4-3.9
				C313.7,231.2,311.9,232.6,311.7,235.1z"/>
			<path class="st13" d="M330,229.5c2.4,0,4,1.2,4.7,2.5v-2.3h2.1v12.8h-2.1V240c-0.8,1.4-2.4,2.6-4.8,2.6c-3.4,0-6-2.7-6-6.6
				C323.9,232,326.6,229.5,330,229.5z M330.4,231.3c-2.3,0-4.3,1.7-4.3,4.7c0,3,2,4.8,4.3,4.8s4.3-1.7,4.3-4.7
				C334.7,233.1,332.7,231.3,330.4,231.3z"/>
			<path class="st13" d="M351.8,242.4h-2.1v-1.9c-0.8,1.3-2.4,2.1-4.1,2.1c-2.9,0-5.2-1.8-5.2-5.5v-7.5h2.1v7.2
				c0,2.6,1.4,3.9,3.6,3.9c2.2,0,3.7-1.3,3.7-4.1v-7h2.1V242.4z"/>
			<path class="st13" d="M366.9,242.6c-3.6,0-6.3-2.6-6.3-6.6c0-4,2.6-6.6,6.3-6.6c3.7,0,6.1,2.6,6.1,6.1c0,0.5,0,0.8-0.1,1.3h-10.2
				c0.2,2.6,2,4,4.1,4c1.9,0,3.1-1,3.6-2.4h2.3C372.1,240.8,370,242.6,366.9,242.6z M362.8,235.1h8.1c0-2.5-1.8-3.9-4-3.9
				C364.7,231.2,363,232.6,362.8,235.1z M369.1,224.2v1.8l-5,2.7v-1.6L369.1,224.2z"/>
			<path class="st13" d="M375.8,225.2h2.1v17.2h-2.1V225.2z"/>
			<path class="st13" d="M387,242.6c-3.6,0-6.3-2.6-6.3-6.6c0-4,2.6-6.6,6.3-6.6c3.7,0,6.1,2.6,6.1,6.1c0,0.5,0,0.8-0.1,1.3h-10.2
				c0.2,2.6,2,4,4.1,4c1.9,0,3.1-1,3.6-2.4h2.3C392.2,240.8,390.2,242.6,387,242.6z M382.9,235.1h8.1c0-2.5-1.8-3.9-4-3.9
				C384.9,231.2,383.1,232.6,382.9,235.1z"/>
			<path class="st13" d="M401.4,229.5c3.2,0,5.2,1.6,5.9,4.3H405c-0.4-1.5-1.7-2.5-3.6-2.5c-2.3,0-4,1.7-4,4.8c0,3.2,1.7,4.8,4,4.8
				c1.9,0,3.1-0.9,3.6-2.5h2.3c-0.7,2.5-2.7,4.3-5.9,4.3c-3.6,0-6.2-2.6-6.2-6.6C395.1,232,397.7,229.5,401.4,229.5z"/>
			<path class="st13" d="M410.5,231.4h-1.7v-1.7h1.7v-3.2h2.1v3.2h3.3v1.7h-3.3v7.5c0,1.3,0.5,1.7,1.8,1.7h1.6v1.8h-1.9
				c-2.3,0-3.5-0.9-3.5-3.5V231.4z"/>
			<path class="st13" d="M420.6,242.4h-2.1v-12.8h2.1v2.1c0.7-1.4,2.1-2.3,4.1-2.3v2.2h-0.6c-2,0-3.6,0.9-3.6,3.9V242.4z"/>
			<path class="st13" d="M426.9,226.1c0-0.8,0.6-1.4,1.4-1.4c0.8,0,1.4,0.6,1.4,1.4s-0.6,1.4-1.4,1.4
				C427.5,227.6,426.9,227,426.9,226.1z M427.2,229.7h2.1v12.8h-2.1V229.7z"/>
			<path class="st13" d="M438.2,229.5c2.3,0,4,1.2,4.7,2.5v-2.3h2.1v18.8h-2.1v-8.4c-0.7,1.3-2.4,2.6-4.8,2.6c-3.4,0-6-2.7-6-6.6
				C432.1,232,434.8,229.5,438.2,229.5z M438.6,231.3c-2.3,0-4.3,1.7-4.3,4.7c0,3,2,4.8,4.3,4.8s4.3-1.7,4.3-4.7
				C442.9,233.1,440.9,231.3,438.6,231.3z"/>
			<path class="st13" d="M460,242.4h-2.1v-1.9c-0.8,1.3-2.4,2.1-4.1,2.1c-2.9,0-5.2-1.8-5.2-5.5v-7.5h2.1v7.2c0,2.6,1.4,3.9,3.6,3.9
				c2.2,0,3.7-1.3,3.7-4.1v-7h2.1V242.4z"/>
			<path class="st13" d="M469.1,242.6c-3.6,0-6.3-2.6-6.3-6.6c0-4,2.6-6.6,6.3-6.6c3.7,0,6.1,2.6,6.1,6.1c0,0.5,0,0.8-0.1,1.3h-10.2
				c0.2,2.6,2,4,4.1,4c1.9,0,3.1-1,3.6-2.4h2.3C474.3,240.8,472.2,242.6,469.1,242.6z M464.9,235.1h8.1c0-2.5-1.8-3.9-4-3.9
				C466.9,231.2,465.2,232.6,464.9,235.1z"/>
		</g>
		<g class="st14">
			<path class="st6" d="M52.6,159.1h-2.3v-3.7h6.4v17h-4.1V159.1z"/>
		</g>
		<g class="st15">
			<g>
				<defs>
					<rect id="SVGID_21_" x="27.7" y="169.3" width="90.3" height="54"/>
				</defs>
				<clipPath id="SVGID_22_">
					<use xlink:href="#SVGID_21_"  style="overflow:visible;"/>
				</clipPath>
				<g class="st16">
					<path class="st6" d="M46.1,204.1c3.6-3,7.4-5.9,7.4-8.8c0-1.2-0.6-2-1.8-2c-1.2,0-1.9,0.9-1.9,2.5H46c0.1-4.1,2.8-5.9,5.9-5.9
						c3.9,0,5.6,2.3,5.6,5.1c0,3.7-3.3,6.7-6,8.8h6.3v3.2H46.1V204.1z"/>
				</g>
			</g>
		</g>
		<g class="st17">
			<g>
				<defs>
					<rect id="SVGID_23_" x="26.9" y="204.2" width="91.1" height="54"/>
				</defs>
				<clipPath id="SVGID_24_">
					<use xlink:href="#SVGID_23_"  style="overflow:visible;"/>
				</clipPath>
				<g class="st18">
					<path class="st6" d="M51.3,224.8c3.6,0,5.5,2,5.5,4.6c0,2.2-1.4,3.4-2.6,3.8v0.1c1.7,0.6,2.9,1.9,2.9,4.1c0,2.9-2,4.9-5.6,4.9
						c-3.5,0-6.1-1.7-6.2-5.5h3.9c0,1.3,0.7,2.2,2.2,2.2c1.2,0,1.9-0.8,1.9-1.9c0-1.5-0.9-2.1-3-2.1h-0.7v-3.2h0.7
						c1.3,0,2.7-0.3,2.7-1.9c0-1.1-0.7-1.8-1.7-1.8c-1.3,0-1.7,0.9-1.8,1.9h-3.9C45.7,226.6,47.9,224.8,51.3,224.8z"/>
				</g>
			</g>
		</g>
	</g>
</g>
</svg>