<?xml version="1.0" encoding="utf-8"?>
<!-- Generator: Adobe Illustrator 22.0.0, SVG Export Plug-In . SVG Version: 6.00 Build 0)  -->
<svg version="1.1" id="Calque_1" xmlns="http://www.w3.org/2000/svg" xmlns:xlink="http://www.w3.org/1999/xlink" x="0px" y="0px"
	 viewBox="0 0 566.9 340.2" style="enable-background:new 0 0 566.9 340.2;" xml:space="preserve">
<style type="text/css">
	.st0{fill:none;stroke:#30B4AA;stroke-width:2;stroke-miterlimit:10;}
	.st1{fill:none;stroke:#2E2E2F;stroke-width:2;stroke-miterlimit:10;}
	.st2{fill:#2E2E2F;}
	.st3{fill:#2E2F2F;}
</style>
<g>
	<polyline class="st0" points="20,256.9 103.1,215.1 186.2,132.3 269.1,173.7 352.2,256.5 435.2,276.7 518.2,297.9 	"/>
	<polyline class="st1" points="559.8,297.9 20,297.9 20,7.8 	"/>
	<polygon class="st2" points="20,0.8 15.9,8 24.2,8 	"/>
	<polygon class="st2" points="566.9,297.7 559.8,293.6 559.8,301.9 	"/>
	<line class="st1" x1="20" y1="49.2" x2="24.8" y2="49.2"/>
	<line class="st1" x1="20" y1="132.3" x2="24.8" y2="132.3"/>
	<line class="st1" x1="20" y1="215.1" x2="24.8" y2="215.1"/>
	<line class="st1" x1="103.1" y1="293.2" x2="103.1" y2="297.9"/>
	<line class="st1" x1="186.2" y1="293.2" x2="186.2" y2="297.9"/>
	<line class="st1" x1="269.1" y1="293.2" x2="269.1" y2="297.9"/>
	<line class="st1" x1="352.2" y1="293.2" x2="352.2" y2="297.9"/>
	<line class="st1" x1="435.2" y1="293.2" x2="435.2" y2="297.9"/>
	<line class="st1" x1="518.2" y1="293.2" x2="518.2" y2="297.9"/>
	<g>
		<g>
			<path class="st3" d="M79.3,326.7l-0.8,0.8l-0.7-0.7l1.6-1.6l6.1,6.1l-0.8,0.8L79.3,326.7z"/>
			<path class="st3" d="M83.2,321.8c-0.3-0.3-0.3-0.8,0-1c0.3-0.3,0.7-0.3,1,0c0.3,0.3,0.3,0.8,0,1
				C83.9,322.1,83.5,322.1,83.2,321.8z M85.4,322.1l5.7,5.7c0.8,0.8,0.8,1.6,0,2.4l-0.4,0.4l-0.7-0.7l0.3-0.3c0.4-0.4,0.4-0.7,0-1.1
				l-5.6-5.6L85.4,322.1z"/>
			<path class="st3" d="M93.4,323.5c-1.3,1.3-3.2,1.4-4.7-0.1c-1.5-1.5-1.4-3.4,0-4.7c1.3-1.3,3.3-1.4,4.7,0
				C94.9,320.2,94.7,322.2,93.4,323.5z M92.7,322.9c0.8-0.8,1-2.1-0.1-3.3c-1.2-1.2-2.5-0.9-3.3-0.2c-0.8,0.8-1,2.1,0.2,3.3
				C90.7,323.8,91.9,323.7,92.7,322.9z"/>
			<path class="st3" d="M100.9,315.9l-0.8,0.8l-0.7-0.7c0.2,0.8-0.1,1.6-0.7,2.2c-1.1,1.1-2.6,1.2-3.9-0.1l-2.7-2.7l0.8-0.8l2.6,2.6
				c0.9,0.9,1.9,0.9,2.7,0.1c0.8-0.8,0.8-1.8-0.2-2.8l-2.6-2.6l0.8-0.8L100.9,315.9z"/>
			<path class="st3" d="M102.9,313.9l-0.8,0.8l-4.6-4.6l0.8-0.8l0.8,0.8c-0.3-0.8-0.1-1.6,0.7-2.3l0.8,0.8l-0.2,0.2
				c-0.7,0.7-1,1.6,0.1,2.7L102.9,313.9z"/>
		</g>
		<g>
			<path class="st3" d="M161.4,338.5c0.3-2.9,0.6-5.7-0.6-6.9c-0.7-0.7-1.5-0.9-2.3-0.1c-0.8,0.8-0.7,1.8,0.1,2.6l-0.7,0.7
				c-1.3-1.4-1.1-2.9,0-4c1.2-1.2,2.6-1.2,3.7-0.1c1.5,1.5,1.2,4.5,1,6.5l2.9-2.9l0.6,0.6l-4.1,4.1L161.4,338.5z"/>
			<path class="st3" d="M163.4,325.9c-0.3-0.3-0.3-0.8,0-1c0.3-0.3,0.7-0.3,1,0c0.3,0.3,0.3,0.8,0,1
				C164.1,326.2,163.7,326.2,163.4,325.9z M165.5,326.3l5.7,5.7c0.8,0.8,0.8,1.6,0,2.4l-0.4,0.4l-0.7-0.7l0.3-0.3
				c0.4-0.4,0.4-0.7,0-1.1l-5.6-5.6L165.5,326.3z"/>
			<path class="st3" d="M173.6,327.7c-1.3,1.3-3.2,1.4-4.7-0.1c-1.5-1.5-1.4-3.4,0-4.7c1.3-1.3,3.3-1.4,4.7,0
				C175.1,324.4,174.9,326.4,173.6,327.7z M172.9,327c0.8-0.8,1-2.1-0.1-3.3c-1.2-1.2-2.5-1-3.3-0.2c-0.8,0.8-1,2.1,0.2,3.3
				C170.8,328,172.1,327.8,172.9,327z"/>
			<path class="st3" d="M181,320.1l-0.8,0.8l-0.7-0.7c0.2,0.8-0.1,1.6-0.7,2.2c-1.1,1.1-2.6,1.2-3.9-0.1l-2.7-2.7l0.8-0.8l2.6,2.6
				c0.9,0.9,1.9,0.9,2.7,0.1c0.8-0.8,0.8-1.8-0.2-2.8l-2.6-2.6l0.8-0.8L181,320.1z"/>
			<path class="st3" d="M183.1,318l-0.8,0.8l-4.6-4.6l0.8-0.8l0.8,0.8c-0.3-0.8-0.1-1.6,0.7-2.3l0.8,0.8l-0.2,0.2
				c-0.7,0.7-1,1.6,0.1,2.7L183.1,318z"/>
			<path class="st3" d="M187.2,314.1c-1.1,1.1-2.4,1.3-3.3,0.5l0.8-0.8c0.5,0.4,1.2,0.3,1.9-0.3c0.6-0.6,0.6-1.3,0.3-1.6
				c-1-1-3.2,2.3-4.9,0.6c-0.7-0.7-0.6-2,0.4-3c1-1,2.3-1.2,3.2-0.3l-0.8,0.8c-0.5-0.4-1.2-0.4-1.8,0.2c-0.6,0.6-0.6,1.2-0.3,1.6
				c1.1,1.1,3.2-2.2,4.9-0.6C188.4,311.8,188.3,313,187.2,314.1z"/>
		</g>
		<g>
			<path class="st3" d="M241.3,330.9c1.2-1.2,2.5-1.2,3.4-0.3c0.7,0.7,0.8,1.7,0.3,2.5l0,0c0.9-0.5,1.9-0.5,2.8,0.4
				c0.9,0.9,1,2.4-0.2,3.6c-1.2,1.2-2.6,1.4-3.9,0.3l0.7-0.7c0.7,0.6,1.7,0.6,2.5-0.2c0.8-0.8,0.7-1.7,0.1-2.3
				c-0.9-0.9-1.8-0.6-2.9,0.5l-0.2,0.2l-0.6-0.6l0.2-0.2c1-1,1.3-1.9,0.5-2.6c-0.6-0.6-1.4-0.6-2.1,0.1c-0.7,0.7-0.7,1.6-0.2,2.2
				l-0.8,0.8C239.9,333.4,240.1,332,241.3,330.9z"/>
			<path class="st3" d="M246.9,325.9c-0.3-0.3-0.3-0.8,0-1c0.3-0.3,0.7-0.3,1,0c0.3,0.3,0.3,0.8,0,1
				C247.6,326.2,247.2,326.2,246.9,325.9z M249.1,326.3l5.7,5.7c0.8,0.8,0.8,1.6,0,2.4l-0.4,0.4l-0.7-0.7l0.3-0.3
				c0.4-0.4,0.4-0.7,0-1.1l-5.6-5.6L249.1,326.3z"/>
			<path class="st3" d="M257.1,327.7c-1.3,1.3-3.2,1.4-4.7-0.1c-1.5-1.5-1.4-3.4,0-4.7c1.3-1.3,3.3-1.4,4.7,0
				C258.6,324.4,258.4,326.4,257.1,327.7z M256.4,327c0.8-0.8,1-2.1-0.1-3.3c-1.2-1.2-2.5-0.9-3.3-0.2c-0.8,0.8-1,2.1,0.2,3.3
				C254.3,328,255.6,327.8,256.4,327z"/>
			<path class="st3" d="M264.5,320.1l-0.8,0.8l-0.7-0.7c0.2,0.8-0.1,1.6-0.7,2.2c-1.1,1.1-2.6,1.2-3.9-0.1l-2.7-2.7l0.8-0.8l2.6,2.6
				c0.9,0.9,1.9,0.9,2.7,0.1c0.8-0.8,0.8-1.8-0.2-2.8l-2.6-2.6l0.8-0.8L264.5,320.1z"/>
			<path class="st3" d="M266.6,318l-0.8,0.8l-4.6-4.6l0.8-0.8l0.8,0.8c-0.3-0.8-0.1-1.6,0.7-2.3l0.8,0.8l-0.2,0.2
				c-0.7,0.7-1,1.6,0.1,2.7L266.6,318z"/>
			<path class="st3" d="M270.7,314.1c-1.1,1.1-2.4,1.3-3.3,0.5l0.8-0.8c0.5,0.4,1.2,0.3,1.9-0.3c0.6-0.6,0.6-1.3,0.3-1.6
				c-1-1-3.2,2.3-4.9,0.6c-0.7-0.7-0.6-2,0.4-3c1-1,2.3-1.2,3.2-0.3l-0.8,0.8c-0.5-0.4-1.2-0.4-1.8,0.2c-0.6,0.6-0.6,1.2-0.3,1.6
				c1.1,1.1,3.2-2.2,4.9-0.6C271.9,311.8,271.8,313,270.7,314.1z"/>
		</g>
		<g>
			<path class="st3" d="M329.4,335.2l-3.1,3.1l-0.6-0.6l-1.1-7.1l0.9-0.9l4,4l0.8-0.8l0.7,0.7l-0.8,0.8l1.4,1.4l-0.8,0.8
				L329.4,335.2z M328.8,334.5l-3.2-3.2l0.9,5.5L328.8,334.5z"/>
			<path class="st3" d="M329.5,325.9c-0.3-0.3-0.3-0.8,0-1c0.3-0.3,0.7-0.3,1,0c0.3,0.3,0.3,0.8,0,1
				C330.3,326.2,329.8,326.2,329.5,325.9z M331.7,326.3l5.7,5.7c0.8,0.8,0.8,1.6,0,2.4l-0.4,0.4l-0.7-0.7l0.3-0.3
				c0.4-0.4,0.4-0.7,0-1.1l-5.6-5.6L331.7,326.3z"/>
			<path class="st3" d="M339.8,327.7c-1.3,1.3-3.2,1.4-4.7-0.1c-1.5-1.5-1.4-3.4,0-4.7c1.3-1.3,3.3-1.4,4.7,0
				C341.2,324.4,341.1,326.4,339.8,327.7z M339.1,327c0.8-0.8,1-2.1-0.1-3.3c-1.2-1.2-2.5-0.9-3.3-0.2c-0.8,0.8-1,2.1,0.2,3.3
				C337,328,338.3,327.8,339.1,327z"/>
			<path class="st3" d="M347.2,320.1l-0.8,0.8l-0.7-0.7c0.2,0.8-0.1,1.6-0.7,2.2c-1.1,1.1-2.6,1.2-3.9-0.1l-2.7-2.7l0.8-0.8l2.6,2.6
				c0.9,0.9,1.9,0.9,2.7,0.1c0.8-0.8,0.8-1.8-0.2-2.8l-2.6-2.6l0.8-0.8L347.2,320.1z"/>
			<path class="st3" d="M349.3,318l-0.8,0.8l-4.6-4.6l0.8-0.8l0.8,0.8c-0.3-0.8-0.1-1.6,0.7-2.3l0.8,0.8l-0.2,0.2
				c-0.7,0.7-1,1.6,0.1,2.7L349.3,318z"/>
			<path class="st3" d="M353.4,314.1c-1.1,1.1-2.4,1.3-3.3,0.5l0.8-0.8c0.5,0.4,1.2,0.3,1.9-0.3c0.6-0.6,0.6-1.3,0.3-1.6
				c-1-1-3.2,2.3-4.9,0.6c-0.7-0.7-0.6-2,0.4-3c1-1,2.3-1.2,3.2-0.3l-0.8,0.8c-0.5-0.4-1.2-0.4-1.8,0.2c-0.6,0.6-0.6,1.2-0.3,1.6
				c1.1,1.1,3.2-2.2,4.9-0.6C354.5,311.8,354.4,313,353.4,314.1z"/>
		</g>
		<g>
			<path class="st3" d="M408.3,329.4l0.7,0.7l-3,3l1.9,1.9c-0.1-0.6,0.2-1.4,0.8-2c1.5-1.5,3-0.9,4,0.1c1.2,1.2,1.5,2.8,0,4.2
				c-1.2,1.2-2.6,1.3-3.8,0.4l0.8-0.8c0.8,0.5,1.7,0.4,2.4-0.3c0.9-0.9,0.7-2-0.1-2.8c-0.9-0.9-1.8-0.9-2.7,0
				c-0.6,0.6-0.7,1.4-0.5,2.1l-0.7,0.7l-3.5-3.5L408.3,329.4z"/>
			<path class="st3" d="M412.2,325.9c-0.3-0.3-0.3-0.8,0-1c0.3-0.3,0.7-0.3,1,0c0.3,0.3,0.3,0.8,0,1
				C412.9,326.2,412.5,326.2,412.2,325.9z M414.4,326.3l5.7,5.7c0.8,0.8,0.8,1.6,0,2.4l-0.4,0.4l-0.7-0.7l0.3-0.3
				c0.4-0.4,0.4-0.7,0-1.1l-5.6-5.6L414.4,326.3z"/>
			<path class="st3" d="M422.4,327.7c-1.3,1.3-3.2,1.4-4.7-0.1c-1.5-1.5-1.4-3.4,0-4.7c1.3-1.3,3.3-1.4,4.7,0
				C423.9,324.4,423.7,326.4,422.4,327.7z M421.7,327c0.8-0.8,1-2.1-0.1-3.3c-1.2-1.2-2.5-0.9-3.3-0.2c-0.8,0.8-1,2.1,0.2,3.3
				C419.7,328,420.9,327.8,421.7,327z"/>
			<path class="st3" d="M429.9,320.1l-0.8,0.8l-0.7-0.7c0.2,0.8-0.1,1.6-0.7,2.2c-1.1,1.1-2.6,1.2-3.9-0.1l-2.7-2.7l0.8-0.8l2.6,2.6
				c0.9,0.9,1.9,0.9,2.7,0.1c0.8-0.8,0.8-1.8-0.2-2.8l-2.6-2.6l0.8-0.8L429.9,320.1z"/>
			<path class="st3" d="M431.9,318l-0.8,0.8l-4.6-4.6l0.8-0.8l0.8,0.8c-0.3-0.8-0.1-1.6,0.7-2.3l0.8,0.8l-0.2,0.2
				c-0.7,0.7-1,1.6,0.1,2.7L431.9,318z"/>
			<path class="st3" d="M436.1,314.1c-1.1,1.1-2.4,1.3-3.3,0.5l0.8-0.8c0.5,0.4,1.2,0.3,1.9-0.3c0.6-0.6,0.6-1.3,0.3-1.6
				c-1-1-3.2,2.3-4.9,0.6c-0.7-0.7-0.6-2,0.4-3c1-1,2.3-1.2,3.2-0.3l-0.8,0.8c-0.5-0.4-1.2-0.4-1.8,0.2c-0.6,0.6-0.6,1.2-0.3,1.6
				c1.1,1.1,3.2-2.2,4.9-0.6C437.2,311.8,437.1,313,436.1,314.1z"/>
		</g>
		<g>
			<path class="st3" d="M492.7,331.4c-0.7-0.5-1.4-0.5-2.1,0.2c-1,1-0.8,2.2,1,4c-0.3-0.9,0-1.9,0.7-2.6c1.1-1.1,2.7-1.2,4,0.1
				c1.1,1.1,1.4,2.7,0,4c-1.8,1.8-3.6,0.9-5.4-0.9c-1.9-1.9-2.5-3.7-0.9-5.3c1.2-1.2,2.5-1,3.4-0.3L492.7,331.4z M492.8,336.5
				c0.8,0.8,1.9,1,2.9,0c0.8-0.8,0.8-1.8-0.1-2.7c-0.9-0.9-1.9-1-2.7-0.1C492.1,334.5,491.8,335.6,492.8,336.5z"/>
			<path class="st3" d="M495.7,325.9c-0.3-0.3-0.3-0.8,0-1c0.3-0.3,0.7-0.3,1,0c0.3,0.3,0.3,0.8,0,1
				C496.4,326.2,496,326.2,495.7,325.9z M497.8,326.3l5.7,5.7c0.8,0.8,0.8,1.6,0,2.4l-0.4,0.4l-0.7-0.7l0.3-0.3
				c0.4-0.4,0.4-0.7,0-1.1l-5.6-5.6L497.8,326.3z"/>
			<path class="st3" d="M505.9,327.7c-1.3,1.3-3.2,1.4-4.7-0.1c-1.5-1.5-1.4-3.4,0-4.7c1.3-1.3,3.3-1.4,4.7,0
				C507.3,324.4,507.2,326.4,505.9,327.7z M505.2,327c0.8-0.8,1-2.1-0.1-3.3c-1.2-1.2-2.5-0.9-3.3-0.2c-0.8,0.8-1,2.1,0.2,3.3
				C503.1,328,504.4,327.8,505.2,327z"/>
			<path class="st3" d="M513.3,320.1l-0.8,0.8l-0.7-0.7c0.2,0.8-0.1,1.6-0.7,2.2c-1.1,1.1-2.6,1.2-3.9-0.1l-2.7-2.7l0.8-0.8l2.6,2.6
				c0.9,0.9,1.9,0.9,2.7,0.1c0.8-0.8,0.8-1.8-0.2-2.8l-2.6-2.6l0.8-0.8L513.3,320.1z"/>
			<path class="st3" d="M515.4,318l-0.8,0.8l-4.6-4.6l0.8-0.8l0.8,0.8c-0.3-0.8-0.1-1.6,0.7-2.3l0.8,0.8l-0.2,0.2
				c-0.7,0.7-1,1.6,0.1,2.7L515.4,318z"/>
			<path class="st3" d="M519.5,314.1c-1.1,1.1-2.4,1.3-3.3,0.5l0.8-0.8c0.5,0.4,1.2,0.3,1.9-0.3c0.6-0.6,0.6-1.3,0.3-1.6
				c-1-1-3.2,2.3-4.9,0.6c-0.7-0.7-0.6-2,0.4-3c1-1,2.3-1.2,3.2-0.3l-0.8,0.8c-0.5-0.4-1.2-0.4-1.8,0.2c-0.6,0.6-0.6,1.2-0.3,1.6
				c1.1,1.1,3.2-2.2,4.9-0.6C520.7,311.8,520.6,313,519.5,314.1z"/>
		</g>
	</g>
	<g>
		<path class="st3" d="M4.6,212.3H3.5v-1h2.3v8.7H4.6V212.3z"/>
		<path class="st3" d="M10.6,211.2c2.4,0,3,1.9,3,4.4c0,2.5-0.6,4.4-3,4.4c-2.4,0-3-1.9-3-4.4C7.6,213.1,8.2,211.2,10.6,211.2z
			 M10.6,212.2c-1.7,0-1.9,1.6-1.9,3.4c0,1.9,0.2,3.4,1.9,3.4c1.7,0,1.9-1.6,1.9-3.4C12.5,213.8,12.3,212.2,10.6,212.2z"/>
	</g>
	<g>
		<path class="st3" d="M0.6,136.1c2.3-1.8,4.4-3.6,4.4-5.3c0-1-0.4-1.7-1.6-1.7c-1.1,0-1.7,0.8-1.8,1.9H0.6c0.1-1.8,1.2-2.8,2.8-2.8
			c1.6,0,2.7,1,2.7,2.6c0,2.2-2.3,4-3.9,5.3h4.1v0.9H0.6V136.1z"/>
		<path class="st3" d="M10.6,128.1c2.4,0,3,1.9,3,4.4c0,2.5-0.6,4.4-3,4.4c-2.4,0-3-1.9-3-4.4C7.6,130,8.2,128.1,10.6,128.1z
			 M10.6,129.1c-1.7,0-1.9,1.6-1.9,3.4c0,1.9,0.2,3.4,1.9,3.4c1.7,0,1.9-1.6,1.9-3.4C12.5,130.7,12.3,129.1,10.6,129.1z"/>
	</g>
	<g>
		<path class="st3" d="M3,44.8c1.7,0,2.6,1,2.6,2.2c0,1-0.6,1.8-1.5,2v0.1c1,0.2,1.7,1,1.7,2.2c0,1.3-0.9,2.4-2.7,2.4
			c-1.6,0-2.9-0.9-3-2.6h1.1c0.1,0.9,0.8,1.6,1.9,1.6c1.2,0,1.7-0.7,1.7-1.6c0-1.2-0.9-1.7-2.4-1.7H2v-0.9h0.3
			c1.5,0,2.2-0.5,2.2-1.5c0-0.8-0.6-1.4-1.6-1.4c-1,0-1.6,0.6-1.7,1.4H0.1C0.2,45.7,1.4,44.8,3,44.8z"/>
		<path class="st3" d="M10.2,44.9c2.4,0,3,1.9,3,4.4c0,2.5-0.6,4.4-3,4.4c-2.4,0-3-1.9-3-4.4C7.2,46.8,7.8,44.9,10.2,44.9z
			 M10.2,45.9c-1.7,0-1.9,1.6-1.9,3.4c0,1.9,0.2,3.4,1.9,3.4c1.7,0,1.9-1.6,1.9-3.4C12.2,47.4,11.9,45.9,10.2,45.9z"/>
	</g>
</g>
</svg>