<?xml version="1.0" encoding="utf-8"?>
<!-- Generator: Adobe Illustrator 22.0.0, SVG Export Plug-In . SVG Version: 6.00 Build 0)  -->
<svg version="1.1" id="Calque_1" xmlns="http://www.w3.org/2000/svg" xmlns:xlink="http://www.w3.org/1999/xlink" x="0px" y="0px"
	 viewBox="0 0 566.9 357.2" style="enable-background:new 0 0 566.9 357.2;" xml:space="preserve">
<style type="text/css">
	.st0{fill:#FFC200;}
	.st1{fill:none;stroke:#FFC200;stroke-width:2;stroke-miterlimit:10;}
	.st2{fill:#A9A9AA;}
	.st3{fill:none;stroke:#A9A9AA;stroke-width:2;stroke-miterlimit:10;}
	.st4{fill:#2E2F2F;}
	.st5{fill:none;stroke:#A9A9A9;stroke-width:2;stroke-miterlimit:10;}
	.st6{fill:none;stroke:#FCC10A;stroke-width:2;stroke-miterlimit:10;}
	.st7{fill:none;stroke:#2E2E2F;stroke-width:2;stroke-miterlimit:10;}
	.st8{fill:#2E2E2F;}
</style>
<g>
	<g>
		<g>
			<path class="st0" d="M532.2,33.7c2.7-2.2,5.3-4.3,5.3-6.4c0-1.2-0.5-2-1.9-2c-1.4,0-2,0.9-2.1,2.2h-1.3c0.1-2.2,1.5-3.4,3.4-3.4
				c2,0,3.2,1.2,3.2,3.1c0,2.6-2.8,4.8-4.6,6.3h5v1.1h-6.9V33.7z"/>
			<path class="st0" d="M544.2,24.2c2.9,0,3.6,2.3,3.6,5.3c0,3-0.7,5.3-3.6,5.3c-2.9,0-3.6-2.3-3.6-5.3
				C540.6,26.5,541.3,24.2,544.2,24.2z M544.2,25.4c-2.1,0-2.3,1.9-2.3,4.1c0,2.2,0.3,4.1,2.3,4.1c2,0,2.3-1.9,2.3-4.1
				C546.5,27.3,546.3,25.4,544.2,25.4z"/>
			<path class="st0" d="M549.5,33.7c2.7-2.2,5.3-4.3,5.3-6.4c0-1.2-0.5-2-1.9-2c-1.4,0-2,0.9-2.1,2.2h-1.3c0.1-2.2,1.5-3.4,3.4-3.4
				c2,0,3.2,1.2,3.2,3.1c0,2.6-2.8,4.8-4.6,6.3h5v1.1h-6.9V33.7z"/>
			<path class="st0" d="M559,25.6h-1.4v-1.2h2.7v10.4H559V25.6z"/>
		</g>
		<line class="st1" x1="495.6" y1="30.1" x2="520.9" y2="30.1"/>
		<g>
			<path class="st2" d="M529.9,10.3c2.7-2.2,5.3-4.3,5.3-6.4c0-1.2-0.5-2-1.9-2c-1.4,0-2,0.9-2.1,2.2H530c0.1-2.2,1.5-3.4,3.4-3.4
				c2,0,3.2,1.2,3.2,3.1c0,2.6-2.8,4.8-4.6,6.3h5v1.1h-6.9V10.3z"/>
			<path class="st2" d="M542,0.8c2.9,0,3.6,2.3,3.6,5.3c0,3-0.7,5.3-3.6,5.3c-2.9,0-3.6-2.3-3.6-5.3C538.4,3.1,539.1,0.8,542,0.8z
				 M542,2c-2.1,0-2.3,1.9-2.3,4.1c0,2.2,0.3,4.1,2.3,4.1c2,0,2.3-1.9,2.3-4.1C544.3,3.9,544,2,542,2z"/>
			<path class="st2" d="M547.3,10.3c2.7-2.2,5.3-4.3,5.3-6.4c0-1.2-0.5-2-1.9-2c-1.4,0-2,0.9-2.1,2.2h-1.3c0.1-2.2,1.5-3.4,3.4-3.4
				c2,0,3.2,1.2,3.2,3.1c0,2.6-2.8,4.8-4.6,6.3h5v1.1h-6.9V10.3z"/>
			<path class="st2" d="M559.3,0.8c2.9,0,3.6,2.3,3.6,5.3c0,3-0.7,5.3-3.6,5.3c-2.9,0-3.6-2.3-3.6-5.3
				C555.7,3.1,556.4,0.8,559.3,0.8z M559.3,2c-2.1,0-2.3,1.9-2.3,4.1c0,2.2,0.3,4.1,2.3,4.1c2,0,2.3-1.9,2.3-4.1
				C561.6,3.9,561.4,2,559.3,2z"/>
		</g>
		<line class="st3" x1="495.6" y1="6.4" x2="520.9" y2="6.4"/>
	</g>
	<g>
		<path class="st4" d="M1.7,44.2H0.6v-1h2.3v8.7H1.7V44.2z"/>
		<path class="st4" d="M4.6,51C6.9,49.1,9,47.4,9,45.6c0-1-0.4-1.7-1.6-1.7c-1.1,0-1.7,0.8-1.8,1.9H4.6C4.7,44,5.8,43,7.4,43
			c1.6,0,2.7,1,2.7,2.6c0,2.2-2.3,4-3.9,5.3h4.1v0.9H4.6V51z"/>
		<path class="st4" d="M14.6,43c2.4,0,3,1.9,3,4.4c0,2.5-0.6,4.4-3,4.4c-2.4,0-3-1.9-3-4.4C11.6,44.9,12.2,43,14.6,43z M14.6,44
			c-1.7,0-1.9,1.6-1.9,3.4c0,1.9,0.2,3.4,1.9,3.4c1.7,0,1.9-1.6,1.9-3.4C16.6,45.6,16.3,44,14.6,44z"/>
	</g>
	<g>
		<path class="st4" d="M1.1,85.5h-1.2v-1h2.3v8.7H1.1V85.5z"/>
		<path class="st4" d="M7.1,84.4c2.4,0,3,1.9,3,4.4c0,2.5-0.6,4.4-3,4.4c-2.4,0-3-1.9-3-4.4C4.1,86.3,4.7,84.4,7.1,84.4z M7.1,85.4
			c-1.7,0-1.9,1.6-1.9,3.4c0,1.9,0.2,3.4,1.9,3.4c1.7,0,1.9-1.6,1.9-3.4C9,87,8.8,85.4,7.1,85.4z"/>
		<path class="st4" d="M14.6,84.4c2.4,0,3,1.9,3,4.4c0,2.5-0.6,4.4-3,4.4c-2.4,0-3-1.9-3-4.4C11.6,86.3,12.2,84.4,14.6,84.4z
			 M14.6,85.4c-1.7,0-1.9,1.6-1.9,3.4c0,1.9,0.2,3.4,1.9,3.4c1.7,0,1.9-1.6,1.9-3.4C16.6,87,16.3,85.4,14.6,85.4z"/>
	</g>
	<g>
		<path class="st4" d="M4.2,128.3c0-1.3,1-2.3,2.8-2.3c1.9,0,2.9,1,2.9,2.3c0,0.9-0.5,1.7-1.4,2c1,0.3,1.6,1.1,1.6,2.2
			c0,1.6-1.2,2.6-3.1,2.6c-1.8,0-3.1-1-3.1-2.6c0-1.1,0.6-1.9,1.6-2.2C4.7,130,4.2,129.3,4.2,128.3z M5.1,132.4c0,1,0.8,1.7,2,1.7
			c1.2,0,2-0.7,2-1.7c0-1.1-0.9-1.7-2-1.7C6,130.8,5.1,131.3,5.1,132.4z M8.9,128.5c0-1-0.7-1.5-1.8-1.5c-1.1,0-1.8,0.5-1.8,1.5
			c0,0.9,0.7,1.5,1.8,1.5C8.1,130,8.9,129.4,8.9,128.5z"/>
		<path class="st4" d="M14.6,126c2.4,0,3,1.9,3,4.4c0,2.5-0.6,4.4-3,4.4c-2.4,0-3-1.9-3-4.4C11.6,127.9,12.2,126,14.6,126z
			 M14.6,127c-1.7,0-1.9,1.6-1.9,3.4c0,1.9,0.2,3.4,1.9,3.4c1.7,0,1.9-1.6,1.9-3.4C16.6,128.6,16.3,127,14.6,127z"/>
	</g>
	<g>
		<path class="st4" d="M8.8,169.2c-0.2-0.8-0.7-1.3-1.6-1.3c-1.4,0-2.1,0.9-2.1,3.5c0.4-0.9,1.3-1.3,2.4-1.3c1.6,0,2.7,1.1,2.7,2.9
			c0,1.6-0.9,2.9-2.8,2.9c-2.6,0-3.2-1.8-3.2-4.5c0-2.7,0.9-4.4,3.1-4.4c1.7,0,2.5,1,2.6,2.2H8.8z M5.2,172.9c0,1.2,0.7,2.1,2,2.1
			c1.1,0,1.8-0.8,1.8-1.9c0-1.2-0.6-2-1.9-2C6.2,171,5.2,171.6,5.2,172.9z"/>
		<path class="st4" d="M14.6,167c2.4,0,3,1.9,3,4.4c0,2.5-0.6,4.4-3,4.4c-2.4,0-3-1.9-3-4.4C11.6,168.9,12.2,167,14.6,167z
			 M14.6,168c-1.7,0-1.9,1.6-1.9,3.4c0,1.9,0.2,3.4,1.9,3.4c1.7,0,1.9-1.6,1.9-3.4C16.6,169.6,16.3,168,14.6,168z"/>
	</g>
	<g>
		<path class="st4" d="M8.2,215.6H3.7v-0.8l4.2-5.8h1.3v5.7h1.2v0.9H9.2v1.9H8.2V215.6z M8.2,214.6V210L5,214.6H8.2z"/>
		<path class="st4" d="M14.5,208.7c2.4,0,3,1.9,3,4.4c0,2.5-0.6,4.4-3,4.4c-2.4,0-3-1.9-3-4.4C11.5,210.6,12.1,208.7,14.5,208.7z
			 M14.5,209.7c-1.7,0-1.9,1.6-1.9,3.4c0,1.9,0.2,3.4,1.9,3.4c1.7,0,1.9-1.6,1.9-3.4C16.5,211.3,16.3,209.7,14.5,209.7z"/>
	</g>
	<g>
		<path class="st4" d="M4.6,258.1c2.3-1.8,4.4-3.6,4.4-5.3c0-1-0.4-1.7-1.6-1.7c-1.1,0-1.7,0.8-1.8,1.9H4.6c0.1-1.8,1.2-2.8,2.8-2.8
			c1.6,0,2.7,1,2.7,2.6c0,2.2-2.3,4-3.9,5.3h4.1v0.9H4.6V258.1z"/>
		<path class="st4" d="M14.6,250.2c2.4,0,3,1.9,3,4.4c0,2.5-0.6,4.4-3,4.4c-2.4,0-3-1.9-3-4.4C11.6,252.1,12.2,250.2,14.6,250.2z
			 M14.6,251.2c-1.7,0-1.9,1.6-1.9,3.4c0,1.9,0.2,3.4,1.9,3.4c1.7,0,1.9-1.6,1.9-3.4C16.6,252.8,16.3,251.2,14.6,251.2z"/>
	</g>
	<g>
		<path class="st4" d="M276.1,346.6c1.8,1.8,1.7,4.1-0.2,6.1l-1.8,1.8l-5.9-5.9l1.8-1.8C272,344.8,274.3,344.7,276.1,346.6z
			 M275.3,352c1.5-1.5,1.5-3.2,0-4.7c-1.4-1.4-3.1-1.5-4.7,0l-1.1,1.1l4.6,4.6L275.3,352z"/>
		<path class="st4" d="M276.3,339l0.7,0.7l-0.8,2.8l-0.6-0.6L276.3,339z M282.2,346.5c-1.3,1.3-3.2,1.4-4.7-0.1
			c-1.5-1.5-1.5-3.3-0.1-4.7c1.3-1.3,3.2-1.3,4.5,0c0.2,0.2,0.3,0.3,0.4,0.5l-3.7,3.7c1,0.9,2.2,0.7,3-0.1c0.7-0.7,0.8-1.5,0.4-2.2
			l0.8-0.8C283.4,344,283.3,345.4,282.2,346.5z M277.9,345.3l2.9-2.9c-0.9-0.9-2.1-0.7-2.9,0.1C277.2,343.2,277.1,344.3,277.9,345.3
			z"/>
		<path class="st4" d="M282.6,336.5c1.2-1.2,2.5-1.3,3.7-0.6l-0.8,0.8c-0.7-0.4-1.5-0.3-2.2,0.4c-0.8,0.8-0.9,2.1,0.3,3.2
			c1.2,1.2,2.4,1.1,3.2,0.3c0.7-0.7,0.8-1.5,0.4-2.2l0.8-0.8c0.7,1.2,0.6,2.6-0.6,3.7c-1.3,1.3-3.2,1.3-4.7-0.1
			C281.3,339.7,281.3,337.8,282.6,336.5z"/>
		<path class="st4" d="M292.6,336.1c-1.3,1.3-3.2,1.4-4.7-0.1c-1.5-1.5-1.5-3.3-0.1-4.7c1.3-1.3,3.2-1.3,4.5,0
			c0.2,0.2,0.3,0.3,0.4,0.5l-3.7,3.7c1,0.9,2.2,0.7,3-0.1c0.7-0.7,0.8-1.5,0.4-2.2l0.8-0.8C293.8,333.6,293.7,335,292.6,336.1z
			 M288.4,334.9l2.9-2.9c-0.9-0.9-2.1-0.7-2.9,0.1C287.7,332.8,287.5,333.9,288.4,334.9z"/>
		<path class="st4" d="M299.8,323.5c-1-1-1.9-0.9-2.7-0.2c-0.8,0.8-0.8,1.8,0.2,2.8l2.6,2.6l-0.8,0.8l-2.6-2.6c-1-1-1.9-0.9-2.7-0.2
			c-0.8,0.8-0.8,1.8,0.2,2.8l2.6,2.6l-0.8,0.8l-4.6-4.6l0.8-0.8l0.7,0.7c-0.2-0.8,0.1-1.6,0.7-2.2c0.8-0.8,1.7-1.1,2.7-0.7
			c-0.4-0.9-0.1-2,0.6-2.7c1.1-1.1,2.5-1.2,3.9,0.1l2.7,2.7l-0.8,0.8L299.8,323.5z"/>
		<path class="st4" d="M302.3,316.8c1.3-1.3,3.1-1.3,4.6,0.2c1.4,1.4,1.5,3.4,0.2,4.6c-0.8,0.8-1.9,1-2.7,0.8l0.9,0.9l-0.8,0.8
			l-6.3-6.3l0.8-0.8l2.5,2.5C301.3,318.7,301.5,317.7,302.3,316.8z M302.8,317.7c-0.8,0.8-0.9,2.2,0.1,3.3c1.1,1.1,2.5,1,3.3,0.2
			c0.9-0.9,0.9-2.2-0.2-3.3C305,316.7,303.7,316.8,302.8,317.7z"/>
		<path class="st4" d="M311,317.6l-0.8,0.8l-4.6-4.6l0.8-0.8l0.8,0.8c-0.3-0.8-0.1-1.6,0.7-2.3l0.8,0.8l-0.2,0.2
			c-0.7,0.7-1,1.6,0.1,2.7L311,317.6z"/>
		<path class="st4" d="M315.5,313.2c-1.3,1.3-3.2,1.4-4.7-0.1c-1.5-1.5-1.5-3.3-0.1-4.7c1.3-1.3,3.2-1.3,4.5,0
			c0.2,0.2,0.3,0.3,0.4,0.5l-3.7,3.7c1,0.9,2.2,0.7,3-0.1c0.7-0.7,0.8-1.5,0.4-2.2l0.8-0.8C316.7,310.7,316.6,312.1,315.5,313.2z
			 M311.3,312l2.9-2.9c-0.9-0.9-2.1-0.7-2.9,0.1C310.6,309.9,310.4,311,311.3,312z"/>
	</g>
	<g>
		<path class="st4" d="M324.8,332.7l0.8-0.8l4.4,4.4c1,1,0.9,2.3,0,3.2c-1,1-2.3,1-3.3,0l0.8-0.8c0.6,0.5,1.2,0.7,1.8,0.1
			c0.6-0.6,0.4-1.3-0.1-1.8L324.8,332.7z"/>
		<path class="st4" d="M330.2,329.7c0.9-0.9,1.9-1,2.7-0.8l-0.8-0.8l0.8-0.8l4.6,4.6l-0.8,0.8l-0.9-0.9c0.2,0.8,0.1,1.8-0.8,2.7
			c-1.2,1.2-3.2,1.2-4.6-0.2C329,332.8,329,331,330.2,329.7z M331,330.2c-0.8,0.8-0.9,2.2,0.1,3.3c1.1,1.1,2.5,1,3.3,0.2
			s0.9-2.2-0.2-3.3C333.3,329.3,331.9,329.4,331,330.2z"/>
		<path class="st4" d="M339.5,324.6c-1-1-2-0.9-2.7-0.1c-0.8,0.8-0.8,1.8,0.2,2.8l2.6,2.6l-0.8,0.8l-4.6-4.6l0.8-0.8l0.7,0.7
			c-0.2-0.8,0.1-1.6,0.7-2.2c1.1-1.1,2.6-1.2,3.9,0.1l2.7,2.7l-0.8,0.8L339.5,324.6z"/>
		<path class="st4" d="M339.8,320.2l5.4,2.5l-2.5-5.4l0.8-0.8l2.8,6.5l-0.9,0.9l-6.5-2.8L339.8,320.2z"/>
		<path class="st4" d="M342.9,314.6c-0.3-0.3-0.3-0.8,0-1.1c0.3-0.3,0.7-0.3,1,0c0.3,0.3,0.3,0.8,0,1
			C343.7,314.9,343.2,314.9,342.9,314.6z M344.3,315.8l0.8-0.8l4.6,4.6l-0.8,0.8L344.3,315.8z"/>
		<path class="st4" d="M353.1,316.4c-1.3,1.3-3.2,1.4-4.7-0.1c-1.5-1.5-1.4-3.3-0.1-4.7c1.3-1.3,3.2-1.3,4.5,0
			c0.2,0.2,0.3,0.3,0.4,0.5l-3.7,3.7c1,0.9,2.2,0.7,3-0.1c0.7-0.7,0.8-1.5,0.4-2.2l0.8-0.8C354.4,313.8,354.3,315.2,353.1,316.4z
			 M348.9,315.2l2.9-2.9c-0.9-0.9-2.1-0.7-2.9,0.1C348.2,313,348.1,314.2,348.9,315.2z"/>
		<path class="st4" d="M357.1,312.3l-0.8,0.8l-4.6-4.6l0.8-0.8l0.8,0.8c-0.3-0.8-0.1-1.6,0.7-2.3l0.8,0.8l-0.2,0.2
			c-0.7,0.7-1,1.6,0.1,2.7L357.1,312.3z"/>
	</g>
	<g>
		<path class="st4" d="M367.6,332l3.3-3.3l0.6,0.6l-2.6,2.6l2,2l2.1-2.1l0.6,0.6l-2.1,2.1l2.7,2.7l-0.8,0.8L367.6,332z"/>
		<path class="st4" d="M374,324.2l0.7,0.7l-0.8,2.8l-0.6-0.6L374,324.2z M379.9,331.7c-1.3,1.3-3.2,1.4-4.7-0.1
			c-1.5-1.5-1.4-3.3-0.1-4.7c1.3-1.3,3.2-1.3,4.5,0c0.2,0.2,0.3,0.3,0.4,0.5l-3.7,3.7c1,0.9,2.2,0.7,3-0.1c0.7-0.7,0.8-1.5,0.4-2.2
			l0.8-0.8C381.1,329.1,381,330.5,379.9,331.7z M375.6,330.4l2.9-2.9c-0.9-0.9-2.1-0.7-2.9,0.1C374.9,328.3,374.8,329.4,375.6,330.4
			z"/>
		<path class="st4" d="M378.7,323.4l5.4,2.5l-2.5-5.4l0.8-0.8l2.8,6.5l-0.9,0.9l-6.5-2.8L378.7,323.4z"/>
		<path class="st4" d="M388.6,322.8l-0.8,0.8l-4.6-4.6l0.8-0.8l0.8,0.8c-0.3-0.8-0.1-1.6,0.7-2.3l0.8,0.8l-0.2,0.2
			c-0.7,0.7-1,1.6,0.1,2.7L388.6,322.8z"/>
		<path class="st4" d="M384.9,314.6c-0.3-0.3-0.3-0.8,0-1.1c0.3-0.3,0.7-0.3,1,0c0.3,0.3,0.3,0.8,0,1
			C385.7,314.9,385.2,314.9,384.9,314.6z M386.3,315.8l0.8-0.8l4.6,4.6l-0.8,0.8L386.3,315.8z"/>
		<path class="st4" d="M395.1,316.4c-1.3,1.3-3.2,1.4-4.7-0.1c-1.5-1.5-1.4-3.3-0.1-4.7c1.3-1.3,3.2-1.3,4.5,0
			c0.2,0.2,0.3,0.3,0.4,0.5l-3.7,3.7c1,0.9,2.2,0.7,3-0.1c0.7-0.7,0.8-1.5,0.4-2.2l0.8-0.8C396.4,313.8,396.3,315.2,395.1,316.4z
			 M390.9,315.2l2.9-2.9c-0.9-0.9-2.1-0.7-2.9,0.1C390.2,313,390.1,314.2,390.9,315.2z"/>
		<path class="st4" d="M399.1,312.3l-0.8,0.8l-4.6-4.6l0.8-0.8l0.8,0.8c-0.3-0.8-0.1-1.6,0.7-2.3l0.8,0.8l-0.2,0.2
			c-0.7,0.7-1,1.6,0.1,2.7L399.1,312.3z"/>
	</g>
	<g>
		<path class="st4" d="M415.3,324.7l0.8-0.8l7,2.7l-2.7-7l0.8-0.8l5.9,5.9l-0.8,0.8l-4.4-4.4l2.4,6.3l-0.5,0.5l-6.3-2.4l4.4,4.4
			l-0.8,0.8L415.3,324.7z"/>
		<path class="st4" d="M425.6,316.6c0.9-0.9,1.9-1,2.7-0.8l-0.8-0.8l0.8-0.8l4.6,4.6l-0.8,0.8l-0.9-0.9c0.2,0.8,0.1,1.8-0.8,2.7
			c-1.2,1.2-3.2,1.2-4.6-0.2C424.4,319.7,424.4,317.8,425.6,316.6z M426.5,317.1c-0.8,0.8-1,2.2,0.1,3.3c1.1,1.1,2.5,1,3.3,0.2
			c0.8-0.8,0.9-2.2-0.2-3.3C428.7,316.2,427.3,316.3,426.5,317.1z"/>
		<path class="st4" d="M434.9,316.7l-0.8,0.8l-4.6-4.6l0.8-0.8l0.8,0.8c-0.3-0.8-0.1-1.6,0.7-2.3l0.8,0.8l-0.2,0.2
			c-0.7,0.7-1,1.6,0.1,2.7L434.9,316.7z"/>
		<path class="st4" d="M439.1,312.8c-1.1,1.1-2.4,1.3-3.3,0.5l0.8-0.8c0.5,0.4,1.2,0.3,1.9-0.3c0.6-0.6,0.6-1.3,0.3-1.6
			c-1-1-3.2,2.3-4.9,0.6c-0.7-0.7-0.6-2,0.4-3c1-1,2.3-1.2,3.2-0.3l-0.8,0.8c-0.5-0.4-1.2-0.4-1.8,0.2c-0.6,0.6-0.6,1.2-0.3,1.6
			c1.1,1.1,3.2-2.2,4.9-0.6C440.2,310.5,440.1,311.7,439.1,312.8z"/>
	</g>
	<g>
		<path class="st4" d="M468,322.9l-2.6,2.6l0.8,1.8l-0.8,0.8l-3.7-8l0.9-0.9l8,3.7l-0.8,0.8L468,322.9z M463.1,320.6l1.9,4.1
			l2.1-2.1L463.1,320.6z"/>
		<path class="st4" d="M467.1,317.1l5.4,2.5l-2.5-5.4l0.8-0.8l2.8,6.5l-0.9,0.9l-6.5-2.8L467.1,317.1z"/>
		<path class="st4" d="M477,316.5l-0.8,0.8l-4.6-4.6l0.8-0.8l0.8,0.8c-0.3-0.8-0.1-1.6,0.7-2.3l0.8,0.8l-0.2,0.2
			c-0.7,0.7-1,1.6,0.1,2.7L477,316.5z"/>
		<path class="st4" d="M473.4,308.3c-0.3-0.3-0.3-0.8,0-1.1c0.3-0.3,0.7-0.3,1,0c0.3,0.3,0.3,0.8,0,1
			C474.1,308.6,473.7,308.6,473.4,308.3z M474.8,309.4l0.8-0.8l4.6,4.6l-0.8,0.8L474.8,309.4z"/>
		<path class="st4" d="M475.2,305.7l0.8-0.8l6.3,6.3l-0.8,0.8L475.2,305.7z"/>
	</g>
	<g>
		<path class="st4" d="M502.9,319.2l0.8-0.8l7,2.7l-2.7-7l0.8-0.8l5.9,5.9l-0.8,0.8l-4.4-4.4l2.4,6.3l-0.5,0.5l-6.3-2.4l4.4,4.4
			l-0.8,0.8L502.9,319.2z"/>
		<path class="st4" d="M513.3,311.1c0.9-0.9,1.9-1,2.7-0.8l-0.8-0.8l0.8-0.8l4.6,4.6l-0.8,0.8l-0.9-0.9c0.2,0.8,0.1,1.8-0.8,2.7
			c-1.2,1.2-3.2,1.2-4.6-0.2C512,314.2,512,312.3,513.3,311.1z M514.1,311.6c-0.8,0.8-1,2.2,0.1,3.3c1.1,1.1,2.5,1,3.3,0.2
			c0.8-0.8,0.9-2.2-0.2-3.3C516.3,310.7,514.9,310.8,514.1,311.6z"/>
		<path class="st4" d="M515.8,306.2c-0.3-0.3-0.3-0.8,0-1.1c0.3-0.3,0.7-0.3,1,0c0.3,0.3,0.3,0.8,0,1
			C516.5,306.5,516,306.5,515.8,306.2z M517.2,307.3l0.8-0.8l4.6,4.6l-0.8,0.8L517.2,307.3z"/>
	</g>
	<g>
		<path class="st4" d="M204.1,341.8c-1.7,1.7-4.2,1.7-6-0.1c-1.8-1.8-1.7-4.3-0.1-6c1.7-1.7,4.2-1.7,6,0.1
			C205.8,337.6,205.8,340.1,204.1,341.8z M203.4,341.1c1.2-1.2,1.3-3.1-0.2-4.5c-1.4-1.4-3.3-1.4-4.5-0.2c-1.2,1.2-1.3,3.1,0.2,4.5
			C200.3,342.4,202.2,342.4,203.4,341.1z"/>
		<path class="st4" d="M205.3,331c1.2-1.2,2.5-1.3,3.7-0.6l-0.8,0.8c-0.7-0.4-1.5-0.3-2.2,0.4c-0.8,0.8-0.9,2.1,0.3,3.2
			c1.2,1.2,2.4,1.1,3.2,0.3c0.7-0.7,0.8-1.5,0.4-2.2l0.8-0.8c0.7,1.2,0.6,2.6-0.6,3.7c-1.3,1.3-3.2,1.3-4.7-0.1
			C204,334.2,204,332.4,205.3,331z"/>
		<path class="st4" d="M209.3,328.4l-0.6,0.6l-0.6-0.6l0.6-0.6l-1.2-1.2l0.8-0.8l1.2,1.2l1.2-1.2l0.6,0.6l-1.2,1.2l2.7,2.7
			c0.5,0.5,0.8,0.5,1.3,0l0.6-0.6l0.7,0.7l-0.7,0.7c-0.8,0.8-1.6,1-2.6,0L209.3,328.4z"/>
		<path class="st4" d="M218.4,327.5c-1.3,1.3-3.2,1.4-4.7-0.1c-1.5-1.5-1.4-3.4,0-4.7c1.3-1.3,3.3-1.4,4.7,0
			C219.8,324.2,219.7,326.2,218.4,327.5z M217.7,326.9c0.8-0.8,1-2.1-0.1-3.3c-1.2-1.2-2.5-1-3.3-0.2c-0.8,0.8-1,2.1,0.2,3.3
			C215.6,327.8,216.9,327.7,217.7,326.9z"/>
		<path class="st4" d="M219.5,316.8c1.3-1.3,3.1-1.3,4.6,0.2c1.4,1.4,1.5,3.4,0.2,4.6c-0.8,0.8-1.9,1-2.7,0.8l0.9,0.9l-0.8,0.8
			l-6.3-6.3l0.8-0.8l2.5,2.5C218.5,318.7,218.7,317.7,219.5,316.8z M220,317.7c-0.8,0.8-0.9,2.2,0.1,3.3c1.1,1.1,2.5,1,3.3,0.2
			c0.9-0.9,0.9-2.2-0.2-3.3C222.2,316.7,220.9,316.8,220,317.7z"/>
		<path class="st4" d="M228.2,317.6l-0.8,0.8l-4.6-4.6l0.8-0.8l0.8,0.8c-0.3-0.8-0.1-1.6,0.7-2.3l0.8,0.8l-0.2,0.2
			c-0.7,0.7-1,1.6,0.1,2.7L228.2,317.6z"/>
		<path class="st4" d="M232.7,313.2c-1.3,1.3-3.2,1.4-4.7-0.1c-1.5-1.5-1.5-3.3-0.1-4.7c1.3-1.3,3.2-1.3,4.5,0
			c0.2,0.2,0.3,0.3,0.4,0.5l-3.7,3.7c1,0.9,2.2,0.7,3-0.1c0.7-0.7,0.8-1.5,0.5-2.2l0.8-0.8C233.9,310.7,233.8,312.1,232.7,313.2z
			 M228.5,312l2.9-2.9c-0.9-0.9-2.1-0.7-2.9,0.1C227.8,309.9,227.6,311,228.5,312z"/>
	</g>
	<g>
		<path class="st4" d="M149.9,355.2c-1.2,1.2-2.7,1.4-3.7,0.4l0.8-0.8c0.5,0.4,1.4,0.6,2.2-0.2c0.7-0.7,0.8-1.6,0.2-2.2
			c-1.6-1.6-3.8,2.6-6,0.4c-1-1-0.8-2.4,0.3-3.6c1.1-1.1,2.5-1.2,3.5-0.4l-0.8,0.8c-0.4-0.3-1.3-0.4-2,0.3c-0.7,0.6-0.8,1.4-0.2,2.1
			c1.5,1.5,3.8-2.6,6-0.4C151,352.4,151.2,353.9,149.9,355.2z"/>
		<path class="st4" d="M155,350.1c-1.3,1.3-3.2,1.4-4.7-0.1c-1.5-1.5-1.5-3.3-0.1-4.7c1.3-1.3,3.2-1.3,4.5,0
			c0.2,0.2,0.3,0.3,0.4,0.5l-3.7,3.7c1,0.9,2.2,0.7,3-0.1c0.7-0.7,0.8-1.5,0.5-2.2l0.8-0.8C156.3,347.5,156.2,348.9,155,350.1z
			 M150.8,348.9l2.9-2.9c-0.9-0.9-2.1-0.7-2.9,0.1C150.1,346.7,150,347.9,150.8,348.9z"/>
		<path class="st4" d="M156,339.6c1.2-1.2,3.1-1.3,4.6,0.2c1.4,1.4,1.5,3.4,0.2,4.6c-0.8,0.8-1.9,1-2.7,0.8l3.1,3.1l-0.8,0.8
			l-6.9-6.9l0.8-0.8l0.9,0.9C154.9,341.5,155.1,340.4,156,339.6z M156.5,340.4c-0.8,0.8-0.9,2.2,0.1,3.3c1.1,1.1,2.5,1,3.3,0.2
			c0.9-0.9,0.9-2.2-0.2-3.3C158.7,339.4,157.3,339.5,156.5,340.4z"/>
		<path class="st4" d="M160.1,336.9l-0.6,0.6l-0.6-0.6l0.6-0.6l-1.2-1.2l0.8-0.8l1.2,1.2l1.2-1.2l0.6,0.6l-1.2,1.2l2.7,2.7
			c0.5,0.5,0.8,0.4,1.3,0l0.6-0.6l0.7,0.7l-0.7,0.7c-0.8,0.8-1.6,0.9-2.6,0L160.1,336.9z"/>
		<path class="st4" d="M169.1,336.1c-1.3,1.3-3.2,1.4-4.7-0.1c-1.5-1.5-1.5-3.3-0.1-4.7c1.3-1.3,3.2-1.3,4.5,0
			c0.2,0.2,0.3,0.3,0.4,0.5l-3.7,3.7c1,0.9,2.2,0.7,3-0.1c0.7-0.7,0.8-1.5,0.5-2.2l0.8-0.8C170.3,333.5,170.2,334.9,169.1,336.1z
			 M164.8,334.8l2.9-2.9c-0.9-0.9-2.1-0.7-2.9,0.1C164.1,332.7,164,333.8,164.8,334.8z"/>
		<path class="st4" d="M176.3,323.4c-1-1-1.9-0.9-2.7-0.2c-0.8,0.8-0.8,1.8,0.2,2.8l2.6,2.6l-0.8,0.8l-2.6-2.6c-1-1-1.9-0.9-2.7-0.2
			c-0.8,0.8-0.8,1.8,0.2,2.8l2.6,2.6l-0.8,0.8l-4.6-4.6l0.8-0.8l0.7,0.7c-0.2-0.8,0.1-1.6,0.7-2.2c0.8-0.8,1.7-1.1,2.7-0.7
			c-0.4-0.9-0.1-2,0.6-2.7c1.1-1.1,2.5-1.2,3.9,0.1l2.7,2.7l-0.8,0.8L176.3,323.4z"/>
		<path class="st4" d="M178.7,316.8c1.3-1.3,3.1-1.3,4.6,0.2c1.4,1.4,1.5,3.4,0.2,4.6c-0.8,0.8-1.9,1-2.7,0.8l0.9,0.9l-0.8,0.8
			l-6.3-6.3l0.8-0.8l2.5,2.5C177.7,318.7,177.9,317.6,178.7,316.8z M179.2,317.6c-0.8,0.8-0.9,2.2,0.1,3.3c1.1,1.1,2.5,1,3.3,0.2
			c0.9-0.9,0.9-2.2-0.2-3.3C181.4,316.7,180.1,316.8,179.2,317.6z"/>
		<path class="st4" d="M187.4,317.5l-0.8,0.8l-4.6-4.6l0.8-0.8l0.8,0.8c-0.3-0.8-0.1-1.6,0.7-2.3l0.8,0.8l-0.2,0.2
			c-0.7,0.7-1,1.6,0.1,2.7L187.4,317.5z"/>
		<path class="st4" d="M191.9,313.2c-1.3,1.3-3.2,1.4-4.7-0.1c-1.5-1.5-1.5-3.3-0.1-4.7c1.3-1.3,3.2-1.3,4.5,0
			c0.2,0.2,0.3,0.3,0.4,0.5l-3.7,3.7c1,0.9,2.2,0.7,3-0.1c0.7-0.7,0.8-1.5,0.5-2.2l0.8-0.8C193.1,310.7,193.1,312.1,191.9,313.2z
			 M187.7,312l2.9-2.9c-0.9-0.9-2.1-0.7-2.9,0.1C187,309.9,186.8,311,187.7,312z"/>
	</g>
	<g>
		<path class="st4" d="M135.6,324.8l-2.6,2.6l0.8,1.8l-0.8,0.8l-3.7-8l0.9-0.9l8,3.7l-0.8,0.8L135.6,324.8z M130.7,322.4l1.9,4.1
			l2.1-2.1L130.7,322.4z"/>
		<path class="st4" d="M141.2,321.9c-1.3,1.3-3.2,1.4-4.7-0.1c-1.5-1.5-1.4-3.4,0-4.7c1.3-1.3,3.3-1.4,4.7,0
			C142.7,318.6,142.5,320.6,141.2,321.9z M140.5,321.2c0.8-0.8,1-2.1-0.1-3.3c-1.2-1.2-2.5-1-3.3-0.2c-0.8,0.8-1,2.1,0.2,3.3
			C138.5,322.2,139.7,322,140.5,321.2z"/>
		<path class="st4" d="M142.7,310.1l-1.9,0.4l-0.5,1.9l-0.6-0.6l0.5-1.9l1.9-0.5L142.7,310.1z M148.7,314.3l-0.8,0.8l-0.7-0.7
			c0.2,0.8-0.1,1.6-0.7,2.2c-1.1,1.1-2.6,1.2-3.9-0.1l-2.7-2.7l0.8-0.8l2.6,2.6c0.9,0.9,1.9,0.9,2.7,0.1c0.8-0.8,0.8-1.8-0.2-2.8
			l-2.6-2.6l0.8-0.8L148.7,314.3z"/>
		<path class="st4" d="M146.1,308.8l-0.6,0.6l-0.6-0.6l0.6-0.6l-1.2-1.2l0.8-0.8l1.2,1.2l1.2-1.2l0.6,0.6l-1.2,1.2l2.7,2.7
			c0.5,0.5,0.8,0.4,1.3,0l0.6-0.6l0.7,0.7l-0.7,0.7c-0.8,0.8-1.6,1-2.6,0L146.1,308.8z"/>
	</g>
	<g>
		<path class="st4" d="M84.7,326.3l0.8-0.8l4.4,4.4c1,1,0.9,2.3,0,3.2c-1,1-2.3,1-3.3,0l0.8-0.8c0.6,0.5,1.2,0.7,1.8,0.1
			c0.6-0.6,0.4-1.3-0.1-1.8L84.7,326.3z"/>
		<path class="st4" d="M97,325.8l-0.8,0.8l-0.7-0.7c0.2,0.8-0.1,1.6-0.7,2.2c-1.1,1.1-2.6,1.2-3.9-0.1l-2.7-2.7l0.8-0.8l2.6,2.6
			c0.9,0.9,1.9,0.9,2.7,0.1c0.8-0.8,0.8-1.8-0.2-2.8l-2.6-2.6l0.8-0.8L97,325.8z"/>
		<path class="st4" d="M92.3,318.7c-0.3-0.3-0.3-0.8,0-1.1c0.3-0.3,0.7-0.3,1,0c0.3,0.3,0.3,0.8,0,1C93,319,92.6,319,92.3,318.7z
			 M93.7,319.9l0.8-0.8l4.6,4.6l-0.8,0.8L93.7,319.9z"/>
		<path class="st4" d="M94.1,316.2l0.8-0.8l6.3,6.3l-0.8,0.8L94.1,316.2z"/>
		<path class="st4" d="M96.2,314.1l0.8-0.8l6.3,6.3l-0.8,0.8L96.2,314.1z"/>
		<path class="st4" d="M106.7,316.3c-1.3,1.3-3.2,1.4-4.7-0.1c-1.5-1.5-1.5-3.3-0.1-4.7c1.3-1.3,3.2-1.3,4.5,0
			c0.2,0.2,0.3,0.3,0.4,0.5l-3.7,3.7c1,0.9,2.2,0.7,3-0.1c0.7-0.7,0.8-1.5,0.5-2.2l0.8-0.8C107.9,313.8,107.8,315.2,106.7,316.3z
			 M102.4,315.1l2.9-2.9c-0.9-0.9-2.1-0.7-2.9,0.1C101.7,313,101.6,314.1,102.4,315.1z"/>
		<path class="st4" d="M106,308.8l-0.6,0.6l-0.6-0.6l0.6-0.6l-1.2-1.2l0.8-0.8l1.2,1.2l1.2-1.2l0.6,0.6l-1.2,1.2l2.7,2.7
			c0.5,0.5,0.8,0.4,1.3,0l0.6-0.6l0.7,0.7l-0.7,0.7c-0.8,0.8-1.6,1-2.6,0L106,308.8z"/>
	</g>
	<g>
		<path class="st4" d="M49.1,319.2l0.8-0.8l4.4,4.4c1,1,0.9,2.3,0,3.2c-1,1-2.3,1-3.3,0l0.8-0.8c0.6,0.5,1.2,0.7,1.8,0.1
			c0.6-0.6,0.4-1.3-0.1-1.8L49.1,319.2z"/>
		<path class="st4" d="M61.4,318.7l-0.8,0.8l-0.7-0.7c0.2,0.8-0.1,1.6-0.7,2.2c-1.1,1.1-2.6,1.2-3.9-0.1l-2.7-2.7l0.8-0.8l2.6,2.6
			c0.9,0.9,1.9,0.9,2.7,0.1c0.8-0.8,0.8-1.8-0.2-2.8l-2.6-2.6l0.8-0.8L61.4,318.7z"/>
		<path class="st4" d="M56.7,311.6c-0.3-0.3-0.3-0.8,0-1.1c0.3-0.3,0.7-0.3,1,0c0.3,0.3,0.3,0.8,0,1C57.4,311.9,57,311.9,56.7,311.6
			z M58.1,312.8l0.8-0.8l4.6,4.6l-0.8,0.8L58.1,312.8z"/>
		<path class="st4" d="M65.6,309.3c-0.9-1-2-0.9-2.7-0.1C62.1,310,62,311,63,312l2.6,2.6l-0.8,0.8l-4.6-4.6l0.8-0.8l0.7,0.7
			c-0.2-0.8,0.1-1.6,0.7-2.2c1.1-1.1,2.6-1.2,3.9,0.1l2.7,2.7l-0.8,0.8L65.6,309.3z"/>
	</g>
	<g>
		<path class="st4" d="M231.6,343.7l5.9,5.9l-0.8,0.8l-7.8-1.6l4.7,4.7l-0.8,0.8l-5.9-5.9l0.8-0.8l7.8,1.6l-4.7-4.7L231.6,343.7z"/>
		<path class="st4" d="M240.9,346.3c-1.3,1.3-3.2,1.4-4.7-0.1c-1.5-1.5-1.4-3.4,0-4.7c1.3-1.3,3.3-1.4,4.7,0
			C242.4,343,242.3,345,240.9,346.3z M240.3,345.6c0.8-0.8,1-2.1-0.1-3.3c-1.2-1.2-2.5-1-3.3-0.2c-0.8,0.8-1,2.1,0.2,3.3
			C238.2,346.6,239.4,346.4,240.3,345.6z"/>
		<path class="st4" d="M239.9,337.9l5.4,2.5l-2.5-5.4l0.8-0.8l2.8,6.5l-0.9,0.9l-6.5-2.8L239.9,337.9z"/>
		<path class="st4" d="M251.1,336.1c-1.3,1.3-3.2,1.4-4.7-0.1c-1.5-1.5-1.5-3.3-0.1-4.7c1.3-1.3,3.2-1.3,4.5,0
			c0.2,0.2,0.3,0.3,0.4,0.5l-3.7,3.7c1,0.9,2.2,0.7,3-0.1c0.7-0.7,0.8-1.5,0.5-2.2l0.8-0.8C252.3,333.6,252.3,335,251.1,336.1z
			 M246.9,334.9l2.9-2.9c-0.9-0.9-2.1-0.7-2.9,0.1C246.2,332.8,246,333.9,246.9,334.9z"/>
		<path class="st4" d="M258.4,323.5c-1-1-1.9-0.9-2.7-0.2c-0.8,0.8-0.8,1.8,0.2,2.8l2.6,2.6l-0.8,0.8l-2.6-2.6c-1-1-1.9-0.9-2.7-0.2
			c-0.8,0.8-0.8,1.8,0.2,2.8l2.6,2.6l-0.8,0.8l-4.6-4.6l0.8-0.8l0.7,0.7c-0.2-0.8,0.1-1.6,0.7-2.2c0.8-0.8,1.7-1.1,2.7-0.7
			c-0.4-0.9-0.1-2,0.6-2.7c1.1-1.1,2.5-1.2,3.9,0.1l2.7,2.7l-0.8,0.8L258.4,323.5z"/>
		<path class="st4" d="M260.8,316.8c1.3-1.3,3.1-1.3,4.6,0.2c1.4,1.4,1.5,3.4,0.2,4.6c-0.8,0.8-1.9,1-2.7,0.8l0.9,0.9l-0.8,0.8
			l-6.3-6.3l0.8-0.8l2.5,2.5C259.8,318.7,260,317.7,260.8,316.8z M261.3,317.7c-0.8,0.8-0.9,2.2,0.1,3.3c1.1,1.1,2.5,1,3.3,0.2
			c0.9-0.9,0.9-2.2-0.2-3.3C263.5,316.7,262.2,316.8,261.3,317.7z"/>
		<path class="st4" d="M269.5,317.6l-0.8,0.8l-4.6-4.6l0.8-0.8l0.8,0.8c-0.3-0.8-0.1-1.6,0.7-2.3l0.8,0.8l-0.2,0.2
			c-0.7,0.7-1,1.6,0.1,2.7L269.5,317.6z"/>
		<path class="st4" d="M274,313.2c-1.3,1.3-3.2,1.4-4.7-0.1c-1.5-1.5-1.5-3.3-0.1-4.7c1.3-1.3,3.2-1.3,4.5,0
			c0.2,0.2,0.3,0.3,0.4,0.5l-3.7,3.7c1,0.9,2.2,0.7,3-0.1c0.7-0.7,0.8-1.5,0.5-2.2l0.8-0.8C275.3,310.7,275.2,312.1,274,313.2z
			 M269.8,312l2.9-2.9c-0.9-0.9-2.1-0.7-2.9,0.1C269.1,309.9,268.9,311,269.8,312z"/>
	</g>
	<polyline class="st5" points="23.5,213.4 64.8,192.8 106,213.4 147.3,172.3 188.6,165.6 229.8,159.8 271,163.7 312.3,74.9 
		353.5,89.7 392.8,131.2 436,197.2 477.3,213.4 518.5,225.3 	"/>
	<polyline class="st6" points="23.5,226.8 64.8,185.3 106,214.6 147.3,179 188.6,161.3 229.8,172.3 271,155.9 312.3,55.8 
		353.5,83.4 394.8,114.7 436,189.4 518.5,213.4 	"/>
	<polyline class="st7" points="559.8,295.7 23.5,295.7 23.5,7.4 	"/>
	<polygon class="st8" points="23.5,0.5 19.4,7.6 27.6,7.6 	"/>
	<polygon class="st8" points="566.9,295.5 559.8,291.4 559.8,299.6 	"/>
	<line class="st7" x1="23.5" y1="48.5" x2="28.2" y2="48.5"/>
	<line class="st7" x1="23.5" y1="89.7" x2="28.2" y2="89.7"/>
	<line class="st7" x1="23.5" y1="131.2" x2="28.2" y2="131.2"/>
	<line class="st7" x1="23.5" y1="172.3" x2="28.2" y2="172.3"/>
	<line class="st7" x1="23.5" y1="213.4" x2="28.2" y2="213.4"/>
	<line class="st7" x1="23.5" y1="254.9" x2="28.2" y2="254.9"/>
	<line class="st7" x1="64.8" y1="291" x2="64.8" y2="295.7"/>
	<line class="st7" x1="106" y1="291" x2="106" y2="295.7"/>
	<line class="st7" x1="147.3" y1="291" x2="147.3" y2="295.7"/>
	<line class="st7" x1="188.6" y1="291" x2="188.6" y2="295.7"/>
	<line class="st7" x1="229.8" y1="291" x2="229.8" y2="295.7"/>
	<line class="st7" x1="271" y1="291" x2="271" y2="295.7"/>
	<line class="st7" x1="312.3" y1="291" x2="312.3" y2="295.7"/>
	<line class="st7" x1="353.5" y1="291" x2="353.5" y2="295.7"/>
	<line class="st7" x1="394.8" y1="291" x2="394.8" y2="295.7"/>
	<line class="st7" x1="436" y1="291" x2="436" y2="295.7"/>
	<line class="st7" x1="477.3" y1="291" x2="477.3" y2="295.7"/>
	<line class="st7" x1="518.5" y1="291" x2="518.5" y2="295.7"/>
</g>
</svg>