<?xml version="1.0" encoding="utf-8"?>
<!-- Generator: Adobe Illustrator 22.0.0, SVG Export Plug-In . SVG Version: 6.00 Build 0)  -->
<svg version="1.1" id="Calque_1" xmlns="http://www.w3.org/2000/svg" xmlns:xlink="http://www.w3.org/1999/xlink" x="0px" y="0px"
	 viewBox="0 0 566.9 113.4" style="enable-background:new 0 0 566.9 113.4;" xml:space="preserve">
<style type="text/css">
	.st0{fill:#FFC200;}
</style>
<g>
	<g>
		<path class="st0" d="M102.1,36.7l-32.3-5.8L54.4,2.3C53.9,1.5,53,1,52.1,1c0,0,0,0,0,0c-0.9,0-1.8,0.5-2.2,1.3L34.3,30.9L2.1,36.7
			c-0.9,0.2-1.7,0.8-2,1.7c-0.3,0.9-0.1,1.9,0.6,2.5l22.6,23.4L19,96.5c-0.1,0.9,0.3,1.8,1,2.4c0.4,0.3,1,0.5,1.5,0.5
			c0.4,0,0.7-0.1,1.1-0.2L52.1,85l29.5,14.1c0.8,0.4,1.8,0.3,2.6-0.2c0.8-0.6,1.1-1.5,1-2.4l-4.4-32.2l22.7-23.4
			c0.7-0.7,0.9-1.7,0.6-2.6C103.8,37.5,103.1,36.8,102.1,36.7z"/>
		<path class="st0" d="M217.8,36.7l-32.3-5.8L170,2.3c-0.4-0.8-1.3-1.3-2.2-1.3c-0.9,0-1.8,0.5-2.2,1.3L150,30.9l-32.3,5.8
			c-0.9,0.2-1.7,0.8-2,1.7c-0.3,0.9-0.1,1.9,0.6,2.6L139,64.4l-4.4,32.2c-0.1,0.9,0.3,1.8,1,2.4c0.8,0.6,1.8,0.6,2.6,0.2L167.7,85
			l29.5,14.1c0.3,0.2,0.7,0.2,1.1,0.2c0.5,0,1.1-0.2,1.5-0.5c0.8-0.6,1.1-1.5,1-2.4l-4.4-32.2l22.7-23.4c0.7-0.7,0.9-1.7,0.6-2.6
			C219.4,37.5,218.7,36.8,217.8,36.7z"/>
		<path class="st0" d="M333.4,36.7l-32.2-5.8L285.6,2.3c-0.4-0.8-1.3-1.3-2.2-1.3c0,0,0,0,0,0c-0.9,0-1.8,0.5-2.2,1.3l-15.5,28.5
			l-32.3,5.8c-0.9,0.2-1.7,0.8-2,1.7c-0.3,0.9-0.1,1.9,0.6,2.6l22.7,23.4l-4.4,32.2c-0.1,0.9,0.3,1.8,1,2.4c0.8,0.6,1.8,0.6,2.6,0.2
			L283.4,85l29.5,14.1c0.3,0.2,0.7,0.2,1.1,0.2c0.5,0,1.1-0.2,1.5-0.5c0.8-0.5,1.1-1.5,1-2.4l-4.3-32.2l22.6-23.4
			c0.7-0.7,0.9-1.7,0.6-2.5C335.1,37.5,334.3,36.8,333.4,36.7z"/>
		<path class="st0" d="M451.1,38.4c-0.3-0.9-1-1.6-2-1.7l-32.3-5.8L401.3,2.3C400.9,1.5,400,1,399.1,1s-1.8,0.5-2.2,1.3l-15.5,28.5
			l-32.3,5.8c-0.9,0.2-1.7,0.8-2,1.7c-0.3,0.9-0.1,1.9,0.6,2.6l22.7,23.4l-4.4,32.2c-0.1,0.9,0.3,1.8,1,2.4c0.8,0.6,1.8,0.6,2.6,0.2
			L399.1,85l29.5,14.1c0.3,0.2,0.7,0.2,1.1,0.2c0.5,0,1.1-0.2,1.5-0.5c0.8-0.6,1.1-1.5,1-2.4l-4.4-32.2l22.7-23.4
			C451.2,40.3,451.4,39.3,451.1,38.4z"/>
	</g>
	<path class="st0" d="M545.5,99.4c-0.4,0-0.7-0.1-1.1-0.2L514.8,85l-29.6,14.1c-0.8,0.4-1.8,0.3-2.5-0.2c-0.7-0.5-1.1-1.4-1-2.3
		l4.4-32.2l-22.7-23.5c-0.6-0.7-0.9-1.6-0.6-2.5c0.3-0.9,1-1.5,1.9-1.7l32.3-5.8l15.5-28.6c0.4-0.8,1.3-1.3,2.2-1.3s1.8,0.5,2.2,1.3
		l15.5,28.6l32.3,5.8c0.9,0.2,1.6,0.8,1.9,1.7c0.3,0.9,0.1,1.8-0.6,2.5l-22.7,23.5l4.4,32.2c0.1,0.9-0.3,1.8-1,2.3
		C546.5,99.2,546,99.4,545.5,99.4z M470.3,40.8l20.3,21c0.5,0.5,0.8,1.3,0.7,2.1l-4,28.8L513.8,80c0.7-0.3,1.5-0.3,2.1,0l26.5,12.7
		l-4-28.8c-0.1-0.8,0.1-1.5,0.7-2.1l20.3-21l-28.9-5.2c-0.7-0.1-1.4-0.6-1.7-1.3L514.8,8.8l-13.9,25.6c-0.4,0.7-1,1.1-1.7,1.3
		L470.3,40.8z"/>
</g>
</svg>
