<?xml version="1.0" encoding="utf-8"?>
<!-- Generator: Adobe Illustrator 22.0.0, SVG Export Plug-In . SVG Version: 6.00 Build 0)  -->
<svg version="1.1" id="Calque_1" xmlns="http://www.w3.org/2000/svg" xmlns:xlink="http://www.w3.org/1999/xlink" x="0px" y="0px"
	 viewBox="0 0 566.9 566.9" style="enable-background:new 0 0 566.9 566.9;" xml:space="preserve">
<style type="text/css">
	.st0{fill:#FFC200;}
	.st1{fill:#FFFFFF;}
</style>
<path class="st0" d="M425.2,566.9H141.7C63.8,566.9,0,503.1,0,425.2V141.7C0,63.8,63.8,0,141.7,0h283.5c78,0,141.7,63.8,141.7,141.7
	v283.5C566.9,503.1,503.1,566.9,425.2,566.9z"/>
<path class="st1" d="M239.8,406.1c-8,0-16.1-3.1-22.2-9.2L122,301.5c-12.3-12.2-12.3-32.1,0-44.4c12.2-12.3,32.1-12.3,44.4,0
	l73.4,73.3l160.7-160.5c12.3-12.2,32.1-12.2,44.4,0c12.2,12.3,12.2,32.1,0,44.4L262,397C255.8,403.1,247.8,406.1,239.8,406.1z"/>
</svg>
