<?xml version="1.0" encoding="utf-8"?>
<!-- Generator: Adobe Illustrator 22.0.0, SVG Export Plug-In . SVG Version: 6.00 Build 0)  -->
<svg version="1.1" id="Calque_1" xmlns="http://www.w3.org/2000/svg" xmlns:xlink="http://www.w3.org/1999/xlink" x="0px" y="0px"
	 viewBox="0 0 50 50" style="enable-background:new 0 0 50 50;" xml:space="preserve">
<style type="text/css">
	.st0{fill:#FFC200;}
</style>
<g>
	<path class="st0" d="M35.1,22H16.6c-0.6,0-1.2,0.5-1.2,1.2s0.5,1.2,1.2,1.2h18.5c0.6,0,1.2-0.5,1.2-1.2S35.7,22,35.1,22L35.1,22z"
		/>
	<path class="st0" d="M37.8,0.4H8.5c-1,0-1.7,0.8-1.7,1.7v5H6.5C5.9,7,5.3,7.5,5.3,8.2c0,0.7,0.5,1.2,1.2,1.2h0.3v6H6.5
		c-0.6,0-1.2,0.5-1.2,1.2s0.5,1.2,1.2,1.2h0.3v6H6.5c-0.6,0-1.2,0.5-1.2,1.2c0,0.6,0.5,1.2,1.2,1.2h0.3v6H6.5
		c-0.6,0-1.2,0.5-1.2,1.2c0,0.7,0.5,1.2,1.2,1.2h0.3v6H6.5c-0.6,0-1.2,0.5-1.2,1.2s0.5,1.2,1.2,1.2h0.3v5c0,1,0.8,1.7,1.7,1.7h29.3
		c3.1,0,5.6-2.5,5.6-5.6V6C43.5,2.9,40.9,0.4,37.8,0.4L37.8,0.4z M40.2,43.3c0,1.3-1.1,2.3-2.3,2.3H10.2v-3.2h0.3
		c0.6,0,1.2-0.5,1.2-1.2s-0.5-1.2-1.2-1.2h-0.3v-6h0.3c0.6,0,1.2-0.5,1.2-1.2s-0.5-1.2-1.2-1.2h-0.3v-6h0.3c0.6,0,1.2-0.5,1.2-1.2
		c0-0.6-0.5-1.2-1.2-1.2h-0.3v-6h0.3c0.6,0,1.2-0.5,1.2-1.2c0-0.7-0.5-1.2-1.2-1.2h-0.3V9.3h0.3c0.6,0,1.2-0.5,1.2-1.2
		s-0.5-1.2-1.2-1.2h-0.3V3.8h27.7c1.3,0,2.3,1.1,2.3,2.3V43.3z"/>
	<path class="st0" d="M35.1,12.2H16.6c-0.6,0-1.2,0.5-1.2,1.2v5.8c0,0.6,0.5,1.2,1.2,1.2h18.5c0.6,0,1.2-0.5,1.2-1.2v-5.8
		C36.3,12.6,35.7,12.2,35.1,12.2L35.1,12.2z M34,18H17.6v-3.6h16.3L34,18L34,18z"/>
</g>
</svg>