<?xml version="1.0" encoding="utf-8"?>
<!-- Generator: Adobe Illustrator 22.0.0, SVG Export Plug-In . SVG Version: 6.00 Build 0)  -->
<svg version="1.1" id="Calque_1" xmlns="http://www.w3.org/2000/svg" xmlns:xlink="http://www.w3.org/1999/xlink" x="0px" y="0px"
	 viewBox="0 0 50 50" style="enable-background:new 0 0 50 50;" xml:space="preserve">
<style type="text/css">
	.st0{fill:#FFC200;}
	.st1{fill:#FFFFFF;}
	.st2{fill:none;}
	.st3{fill:none;stroke:#FFFFFF;stroke-width:0.25;stroke-linecap:round;stroke-miterlimit:10;}
</style>
<circle class="st0" cx="25" cy="25" r="25"/>
<g>
	<path class="st1" d="M16.2,7.4H15c-0.2-0.3-0.5-0.5-0.9-0.5c-0.7,0-1.2,0.5-1.2,1.3c0,0.9,0.5,1.3,1.3,1.3c0.6,0,0.9-0.3,1.1-0.8
		h-1.4V8h2.4v1c-0.2,0.8-1,1.6-2.2,1.6c-1.4,0-2.3-1-2.3-2.3s1-2.3,2.3-2.3C15.1,5.9,15.9,6.5,16.2,7.4z"/>
	<path class="st1" d="M19.7,9.7H18l-0.3,0.8h-1.2L18.2,6h1.3l1.7,4.6H20L19.7,9.7z M18.9,7.2l-0.6,1.7h1.1L18.9,7.2z"/>
	<path class="st1" d="M26,7.4h-1.2c-0.2-0.3-0.5-0.5-0.9-0.5c-0.7,0-1.2,0.5-1.2,1.3c0,0.9,0.5,1.3,1.3,1.3c0.6,0,0.9-0.3,1.1-0.8
		h-1.4V8h2.4v1c-0.2,0.8-1,1.6-2.2,1.6c-1.4,0-2.3-1-2.3-2.3s1-2.3,2.3-2.3C25,5.9,25.8,6.5,26,7.4z"/>
	<path class="st1" d="M30.8,6v4.6h-1.1l-1.9-2.8v2.8h-1.1V6h1.1l1.9,2.8V6H30.8z"/>
	<path class="st1" d="M34.4,6.8h-1.7v0.9h1.5v0.9h-1.5v1h1.7v0.9h-2.8V6h2.8V6.8z"/>
	<path class="st1" d="M38.3,6.8l-2,2.8h2v0.9h-3.2V9.7l2-2.8h-2V6h3.2V6.8z"/>
</g>
<g>
	<path class="st1" d="M20.1,17v3.2h-6.7v3c0.6-0.6,1.6-1.1,2.9-1.1c3.4,0,4.7,2.6,4.7,5.1c0,3.3-1.9,5.5-5.4,5.5
		c-3.5,0-5.6-2-5.7-4.7h3.6c0.2,0.8,0.8,1.5,2,1.5c1.4,0,2-1,2-2.4c0-1.4-0.7-2.2-2-2.2c-1,0-1.6,0.6-1.8,1.3h-3.5V17H20.1z"/>
	<path class="st1" d="M26.3,17.4c2,0,3.6,1.2,3.6,3.6s-1.5,3.6-3.6,3.6s-3.6-1.2-3.6-3.6S24.3,17.4,26.3,17.4z M25.3,21
		c0,1,0.4,1.5,1,1.5c0.6,0,1.1-0.5,1.1-1.5c0-1-0.4-1.5-1.1-1.5C25.7,19.5,25.3,20,25.3,21z M33.8,17.6h3.5L29,32.7h-3.5L33.8,17.6z
		 M36.5,25.7c2,0,3.6,1.2,3.6,3.6c0,2.4-1.5,3.6-3.6,3.6c-2,0-3.6-1.2-3.6-3.6C33,26.9,34.5,25.7,36.5,25.7z M35.5,29.3
		c0,1,0.4,1.5,1,1.5c0.6,0,1.1-0.5,1.1-1.5c0-1-0.4-1.5-1.1-1.5C35.9,27.9,35.5,28.3,35.5,29.3z"/>
</g>
<g>
	<path class="st1" d="M13.5,41.5c-0.4,0-0.6-0.2-0.7-0.5h0.4c0,0.1,0.1,0.2,0.2,0.2c0.1,0,0.2-0.1,0.2-0.1c0-0.2-0.8-0.1-0.8-0.6
		c0-0.2,0.2-0.4,0.6-0.4c0.4,0,0.6,0.2,0.6,0.5h-0.4c0-0.1-0.1-0.2-0.2-0.2c-0.1,0-0.2,0-0.2,0.1c0,0.2,0.8,0.1,0.8,0.6
		C14.1,41.3,13.9,41.5,13.5,41.5z"/>
	<path class="st1" d="M15.8,41.5h-0.4v-0.2c-0.1,0.1-0.2,0.2-0.4,0.2c-0.3,0-0.6-0.2-0.6-0.6v-0.8h0.4v0.8c0,0.2,0.1,0.3,0.3,0.3
		c0.2,0,0.3-0.1,0.3-0.3v-0.8h0.4V41.5z"/>
	<path class="st1" d="M16.6,41.5h-0.4v-1.5h0.4v0.2c0.1-0.2,0.3-0.3,0.5-0.3v0.5h-0.1c-0.2,0-0.3,0.1-0.3,0.3V41.5z"/>
	<path class="st1" d="M17.8,39.6h0.4v1.9h-0.4V39.6z"/>
	<path class="st1" d="M19.2,41.5c-0.4,0-0.7-0.3-0.7-0.7c0-0.5,0.3-0.7,0.7-0.7c0.4,0,0.7,0.3,0.7,0.7c0,0,0,0.1,0,0.1h-1
		c0,0.2,0.1,0.3,0.3,0.3c0.1,0,0.2-0.1,0.2-0.1h0.5C19.8,41.3,19.6,41.5,19.2,41.5z M18.9,40.7h0.6c0-0.2-0.1-0.2-0.3-0.2
		C19.1,40.4,19,40.5,18.9,40.7z"/>
	<path class="st1" d="M21.6,40c0.4,0,0.6,0.3,0.6,0.7c0,0.5-0.3,0.7-0.6,0.7c-0.2,0-0.4-0.1-0.4-0.2v0.9h-0.4v-2.1h0.4v0.2
		C21.2,40.1,21.4,40,21.6,40z M21.5,40.4c-0.2,0-0.3,0.1-0.3,0.4s0.2,0.4,0.3,0.4c0.2,0,0.3-0.1,0.3-0.4
		C21.8,40.6,21.7,40.4,21.5,40.4z"/>
	<path class="st1" d="M22.9,41.5h-0.4v-1.5h0.4v0.2c0.1-0.2,0.3-0.3,0.5-0.3v0.5h-0.1c-0.2,0-0.3,0.1-0.3,0.3V41.5z"/>
	<path class="st1" d="M23.6,39.7c0-0.1,0.1-0.2,0.3-0.2c0.2,0,0.3,0.1,0.3,0.2c0,0.1-0.1,0.2-0.3,0.2C23.7,39.9,23.6,39.8,23.6,39.7
		z M23.6,40.1H24v1.5h-0.4V40.1z"/>
	<path class="st1" d="M24.9,41.1l-0.2,0.4h-0.5l0.5-0.7l-0.5-0.7h0.5l0.3,0.4l0.2-0.4h0.5l-0.5,0.7l0.5,0.7h-0.5L24.9,41.1z"/>
	<path class="st1" d="M27,40c0.2,0,0.4,0.1,0.4,0.2v-0.7h0.4v1.9h-0.4v-0.2c-0.1,0.1-0.2,0.2-0.4,0.2c-0.4,0-0.6-0.3-0.6-0.7
		C26.4,40.3,26.6,40,27,40z M27.1,40.4c-0.2,0-0.3,0.1-0.3,0.4c0,0.2,0.2,0.4,0.3,0.4c0.2,0,0.3-0.1,0.3-0.4S27.3,40.4,27.1,40.4z"
		/>
	<path class="st1" d="M28.9,41.5c-0.4,0-0.7-0.3-0.7-0.7c0-0.5,0.3-0.7,0.7-0.7c0.4,0,0.7,0.3,0.7,0.7c0,0,0,0.1,0,0.1h-1
		c0,0.2,0.1,0.3,0.3,0.3c0.1,0,0.2-0.1,0.2-0.1h0.5C29.5,41.3,29.2,41.5,28.9,41.5z M28.6,40.7h0.6c0-0.2-0.1-0.2-0.3-0.2
		C28.7,40.4,28.6,40.5,28.6,40.7z"/>
	<path class="st1" d="M30.7,40.1l0.3,1l0.3-1h0.5l-0.5,1.5h-0.5l-0.5-1.5H30.7z"/>
	<path class="st1" d="M32.7,41.5c-0.4,0-0.7-0.3-0.7-0.7c0-0.5,0.3-0.7,0.8-0.7c0.4,0,0.8,0.3,0.8,0.7
		C33.4,41.3,33.1,41.5,32.7,41.5z M32.7,41.2c0.2,0,0.3-0.1,0.3-0.4c0-0.2-0.1-0.4-0.3-0.4c-0.2,0-0.3,0.1-0.3,0.4
		C32.4,41,32.5,41.2,32.7,41.2z"/>
	<path class="st1" d="M33.7,40.4h-0.2v-0.4h0.2v-0.4h0.4v0.4h0.3v0.4h-0.3V41c0,0.1,0,0.1,0.1,0.1h0.2v0.4h-0.2
		c-0.3,0-0.5-0.1-0.5-0.5V40.4z"/>
	<path class="st1" d="M35.2,41.5h-0.4v-1.5h0.4v0.2c0.1-0.2,0.3-0.3,0.5-0.3v0.5h-0.1c-0.2,0-0.3,0.1-0.3,0.3V41.5z"/>
	<path class="st1" d="M36.5,41.5c-0.4,0-0.7-0.3-0.7-0.7c0-0.5,0.3-0.7,0.7-0.7c0.4,0,0.7,0.3,0.7,0.7c0,0,0,0.1,0,0.1h-1
		c0,0.2,0.1,0.3,0.3,0.3c0.1,0,0.2-0.1,0.2-0.1h0.5C37.1,41.3,36.8,41.5,36.5,41.5z M36.2,40.7h0.6c0-0.2-0.1-0.2-0.3-0.2
		C36.3,40.4,36.2,40.5,36.2,40.7z"/>
	<path class="st1" d="M15.6,43.2c0.2,0,0.4,0.1,0.4,0.2v-0.2h0.4v1.4c0,0.4-0.2,0.7-0.7,0.7c-0.4,0-0.7-0.2-0.8-0.6h0.4
		c0,0.1,0.1,0.2,0.3,0.2c0.2,0,0.3-0.1,0.3-0.3v-0.2c-0.1,0.1-0.2,0.2-0.4,0.2c-0.4,0-0.6-0.3-0.6-0.7
		C14.9,43.5,15.2,43.2,15.6,43.2z M15.7,43.6c-0.2,0-0.3,0.1-0.3,0.4c0,0.2,0.2,0.4,0.3,0.4c0.2,0,0.3-0.1,0.3-0.4
		C16,43.7,15.9,43.6,15.7,43.6z"/>
	<path class="st1" d="M17.4,43.2c0.2,0,0.4,0.1,0.4,0.2v-0.2h0.4v1.5h-0.4v-0.2c-0.1,0.1-0.2,0.2-0.4,0.2c-0.4,0-0.6-0.3-0.6-0.7
		C16.7,43.5,17,43.2,17.4,43.2z M17.5,43.6c-0.2,0-0.3,0.1-0.3,0.4c0,0.2,0.2,0.4,0.3,0.4c0.2,0,0.3-0.1,0.3-0.4
		C17.8,43.7,17.7,43.6,17.5,43.6z"/>
	<path class="st1" d="M19.6,43.5L19,44.3h0.6v0.4h-1.1v-0.4l0.6-0.7h-0.6v-0.4h1.1V43.5z"/>
	<path class="st1" d="M20.8,42.8h0.3L20.6,45h-0.3L20.8,42.8z"/>
	<path class="st1" d="M22.5,44.7c-0.4,0-0.7-0.3-0.7-0.7s0.3-0.7,0.7-0.7c0.4,0,0.7,0.3,0.7,0.7c0,0,0,0.1,0,0.1h-1
		c0,0.2,0.1,0.3,0.3,0.3c0.1,0,0.2-0.1,0.2-0.1h0.5C23.1,44.4,22.8,44.7,22.5,44.7z M22.8,42.5v0.3l-0.6,0.3v-0.3L22.8,42.5z
		 M22.2,43.8h0.6c0-0.2-0.1-0.2-0.3-0.2C22.3,43.5,22.2,43.6,22.2,43.8z"/>
	<path class="st1" d="M23.4,42.7h0.4v1.9h-0.4V42.7z"/>
	<path class="st1" d="M24.9,44.7c-0.4,0-0.7-0.3-0.7-0.7s0.3-0.7,0.7-0.7c0.4,0,0.7,0.3,0.7,0.7c0,0,0,0.1,0,0.1h-1
		c0,0.2,0.1,0.3,0.3,0.3c0.1,0,0.2-0.1,0.2-0.1h0.5C25.5,44.4,25.2,44.7,24.9,44.7z M24.6,43.8h0.6c0-0.2-0.1-0.2-0.3-0.2
		C24.7,43.5,24.6,43.6,24.6,43.8z"/>
	<path class="st1" d="M26.5,43.2c0.4,0,0.6,0.2,0.7,0.5h-0.5c0-0.1-0.1-0.2-0.2-0.2c-0.2,0-0.3,0.1-0.3,0.4c0,0.2,0.1,0.4,0.3,0.4
		c0.1,0,0.2-0.1,0.2-0.2h0.5c-0.1,0.3-0.3,0.5-0.7,0.5c-0.4,0-0.7-0.3-0.7-0.7C25.7,43.5,26,43.2,26.5,43.2z"/>
	<path class="st1" d="M27.5,43.6h-0.2v-0.4h0.2v-0.4h0.4v0.4h0.3v0.4h-0.3v0.6c0,0.1,0,0.1,0.1,0.1h0.2v0.4H28
		c-0.3,0-0.5-0.1-0.5-0.5V43.6z"/>
	<path class="st1" d="M28.9,44.6h-0.4v-1.5h0.4v0.2c0.1-0.2,0.3-0.3,0.5-0.3v0.5h-0.1c-0.2,0-0.3,0.1-0.3,0.3V44.6z"/>
	<path class="st1" d="M29.5,42.8c0-0.1,0.1-0.2,0.3-0.2c0.2,0,0.3,0.1,0.3,0.2c0,0.1-0.1,0.2-0.3,0.2C29.6,43,29.5,42.9,29.5,42.8z
		 M29.6,43.2H30v1.5h-0.4V43.2z"/>
	<path class="st1" d="M31,43.2c0.4,0,0.6,0.2,0.7,0.5h-0.5c0-0.1-0.1-0.2-0.2-0.2c-0.2,0-0.3,0.1-0.3,0.4c0,0.2,0.1,0.4,0.3,0.4
		c0.1,0,0.2-0.1,0.2-0.2h0.5c-0.1,0.3-0.3,0.5-0.7,0.5c-0.4,0-0.7-0.3-0.7-0.7C30.2,43.5,30.5,43.2,31,43.2z"/>
	<path class="st1" d="M31.9,42.8c0-0.1,0.1-0.2,0.3-0.2c0.2,0,0.3,0.1,0.3,0.2c0,0.1-0.1,0.2-0.3,0.2C32,43,31.9,42.9,31.9,42.8z
		 M31.9,43.2h0.4v1.5h-0.4V43.2z"/>
	<path class="st1" d="M32.7,43.6h-0.2v-0.4h0.2v-0.4h0.4v0.4h0.3v0.4h-0.3v0.6c0,0.1,0,0.1,0.1,0.1h0.2v0.4h-0.2
		c-0.3,0-0.5-0.1-0.5-0.5V43.6z"/>
	<path class="st1" d="M34.4,44.7c-0.4,0-0.7-0.3-0.7-0.7s0.3-0.7,0.7-0.7c0.4,0,0.7,0.3,0.7,0.7c0,0,0,0.1,0,0.1h-1
		c0,0.2,0.1,0.3,0.3,0.3c0.1,0,0.2-0.1,0.2-0.1h0.5C35,44.4,34.7,44.7,34.4,44.7z M34.7,42.5v0.3L34,43.1v-0.3L34.7,42.5z
		 M34.1,43.8h0.6c0-0.2-0.1-0.2-0.3-0.2C34.2,43.5,34.1,43.6,34.1,43.8z"/>
</g>
<line class="st2" x1="-25.2" y1="16.1" x2="-6.5" y2="16.1"/>
<line class="st3" x1="6.4" y1="13.6" x2="43.6" y2="13.6"/>
<line class="st3" x1="6.4" y1="36.1" x2="43.6" y2="36.1"/>
<g>
	<path class="st1" d="M40.2,17l0.3-0.3l0.2,0.3l-0.4,0.1l0.4,0.1l-0.2,0.3l-0.3-0.3l0.1,0.4h-0.4l0.1-0.4l-0.3,0.3l-0.2-0.3l0.4-0.1
		L39.5,17l0.2-0.3L40,17l-0.1-0.4h0.4L40.2,17z"/>
</g>
</svg>
