<?xml version="1.0" encoding="utf-8"?>
<!-- Generator: Adobe Illustrator 22.0.0, SVG Export Plug-In . SVG Version: 6.00 Build 0)  -->
<svg version="1.1" id="Calque_1" xmlns="http://www.w3.org/2000/svg" xmlns:xlink="http://www.w3.org/1999/xlink" x="0px" y="0px"
	 viewBox="0 0 30 30" style="enable-background:new 0 0 30 30;" xml:space="preserve">
<style type="text/css">
	.st0{fill:#00BFB0;}
</style>
<path class="st0" d="M23.7,1.7c0-0.5-0.2-0.9-0.5-1.2c-0.7-0.7-1.7-0.7-2.4,0l-14,14c-0.3,0.3-0.5,0.8-0.5,1.2
	c0,0.5,0.2,0.9,0.5,1.2l12.5,12.6c0.3,0.3,0.8,0.5,1.2,0.5c0.5,0,0.9-0.2,1.2-0.5c0.7-0.7,0.7-1.7,0-2.4L10.4,15.7L23.2,2.9
	C23.5,2.6,23.7,2.2,23.7,1.7z"/>
</svg>
