<?xml version="1.0" encoding="utf-8"?>
<!-- Generator: Adobe Illustrator 22.0.0, SVG Export Plug-In . SVG Version: 6.00 Build 0)  -->
<svg version="1.1" id="Calque_1" xmlns="http://www.w3.org/2000/svg" xmlns:xlink="http://www.w3.org/1999/xlink" x="0px" y="0px"
	 viewBox="0 0 566.9 566.9" style="enable-background:new 0 0 566.9 566.9;" xml:space="preserve">
<style type="text/css">
	.st0{fill:#FCC10A;}
	.st1{fill:#FFFFFF;}
</style>
<circle class="st0" cx="283.4" cy="283.7" r="276.1"/>
<path class="st1" d="M405.8,262.6H304.5V161.4c0-11.6-9.4-21.1-21.1-21.1c-11.6,0-21.1,9.4-21.1,21.1v101.3H161.1
	c-11.6,0-21.1,9.4-21.1,21.1c0,11.6,9.4,21.1,21.1,21.1h101.3V406c0,11.6,9.4,21.1,21.1,21.1c11.6,0,21.1-9.4,21.1-21.1V304.8h101.3
	c11.6,0,21.1-9.4,21.1-21.1C426.8,272.1,417.4,262.6,405.8,262.6z"/>
</svg>
