<?xml version="1.0" encoding="utf-8"?>
<!-- Generator: Adobe Illustrator 22.0.0, SVG Export Plug-In . SVG Version: 6.00 Build 0)  -->
<svg version="1.1" id="Capa_1" xmlns="http://www.w3.org/2000/svg" xmlns:xlink="http://www.w3.org/1999/xlink" x="0px" y="0px"
	 viewBox="0 0 423.3 423.3" style="enable-background:new 0 0 423.3 423.3;" xml:space="preserve">
<style type="text/css">
	.st0{fill:#FFC200;}
</style>
<g>
	<path class="st0" d="M168.4,253.6c2.2,2.2,5.2,3.4,8.2,3.4c3,0,5.9-1.2,8.2-3.4l122-122c4.5-4.5,4.5-11.8,0-16.4
		c-4.5-4.5-11.8-4.5-16.4,0l-122,122C163.9,241.8,163.9,249.1,168.4,253.6z"/>
	<path class="st0" d="M410.9,81.7c-4.4-13.4-14.3-27.9-28.6-42.1c-14.2-14.3-36.1-31.5-58.7-31.5c-10.1,0-19.4,3.6-27,10.3
		c-0.4,0.3-0.8,0.7-1.2,1l-43.8,43.8H23c-6.3,0-11.5,5.2-11.5,11.5v328.9c0,6.3,5.2,11.5,11.5,11.5h328.9c6.3,0,11.5-5.2,11.5-11.5
		V167.9c0-0.7-0.1-1.4-0.2-2.1l38.4-38.4c0.1-0.1,0.2-0.2,0.2-0.2l0,0l0.8-0.8c0.4-0.4,0.7-0.8,1-1.2
		C414,113.6,416.6,98.5,410.9,81.7z M166.2,320.6l-81.5,23.5l18.5-86.5L166.2,320.6z M187.3,309.1l-74.4-74.4L286.5,61.1l74.4,74.4
		L187.3,309.1z M340.4,392.2H34.5V86.3h194.1L88.2,226.8c-1.5,1.5-2.7,3.6-3.2,5.8L58.2,358.1c-0.9,3.9,0.5,8.1,3.5,10.9
		c2.2,2,5,3.1,7.9,3.1c0.6,0,222.7,0,222.7,0c6.3,0,11.5-5.2,11.5-11.5s-5.2-11.5-11.5-11.5H151.1l37.9-11c1.8-0.6,3.6-1.5,5-2.9
		l146.5-146.5L340.4,392.2L340.4,392.2z M385.9,110.5c-0.1,0.1-0.3,0.3-0.4,0.4l-0.1,0.1l-0.1,0.1l-8.2,8.2l-74.4-74.4l8.4-8.4
		c0.1-0.1,0.3-0.3,0.4-0.4c3.6-3.3,7.4-4.8,12.1-4.8c11.3,0,26.7,8.9,42.4,24.6C374.7,64.5,401.5,93.7,385.9,110.5z"/>
</g>
</svg>