<?xml version="1.0" encoding="utf-8"?>
<!-- Generator: Adobe Illustrator 22.0.0, SVG Export Plug-In . SVG Version: 6.00 Build 0)  -->
<svg version="1.1" id="Calque_1" xmlns="http://www.w3.org/2000/svg" xmlns:xlink="http://www.w3.org/1999/xlink" x="0px" y="0px"
	 viewBox="0 0 40 40" style="enable-background:new 0 0 40 40;" xml:space="preserve">
<style type="text/css">
	.st0{fill:#2E2E2E;}
</style>
<g>
	<path class="st0" d="M28.7,17.5h-15c-0.5,0-1,0.4-1,1s0.4,1,1,1h15c0.5,0,1-0.4,1-1S29.2,17.5,28.7,17.5L28.7,17.5z"/>
	<path class="st0" d="M30.9,0H7.1C6.3,0,5.8,0.6,5.8,1.4v4.1H5.5c-0.5-0.1-1,0.3-1,0.9s0.4,1,1,1h0.2v4.9H5.5c-0.5,0-1,0.4-1,1
		s0.4,1,1,1h0.2V19H5.5c-0.5,0-1,0.4-1,1c0,0.5,0.4,1,1,1h0.2v4.9H5.5c-0.5,0-1,0.4-1,1c0,0.6,0.4,1,1,1h0.2v4.9H5.5
		c-0.5,0-1,0.4-1,1s0.4,1,1,1h0.2v4.1c0,0.8,0.6,1.4,1.4,1.4h23.8c2.5,0,4.5-2,4.5-4.5V4.5C35.5,2,33.4,0,30.9,0L30.9,0z M32.9,34.8
		c0,1.1-0.9,1.9-1.9,1.9H8.5v-2.6h0.2c0.5,0,1-0.4,1-1s-0.4-1-1-1H8.5v-4.9h0.2c0.5,0,1-0.4,1-1c0-0.6-0.4-1-1-1H8.5v-4.9h0.2
		c0.5,0,1-0.4,1-1c0-0.5-0.4-1-1-1H8.5v-4.9h0.2c0.5,0,1-0.4,1-1s-0.4-1-1-1H8.5V7.2h0.2c0.5,0,1-0.4,1-1s-0.4-1-1-1H8.5V2.8H31
		c1.1,0,1.9,0.9,1.9,1.9V34.8z"/>
	<path class="st0" d="M28.7,9.6h-15c-0.5,0-1,0.4-1,1v4.7c0,0.5,0.4,1,1,1h15c0.5,0,1-0.4,1-1v-4.7C29.7,9.9,29.2,9.6,28.7,9.6
		L28.7,9.6z M27.8,14.3H14.5v-2.9h13.2L27.8,14.3L27.8,14.3z"/>
</g>
</svg>