<?xml version="1.0" encoding="utf-8"?>
<!-- Generator: Adobe Illustrator 22.0.0, SVG Export Plug-In . SVG Version: 6.00 Build 0)  -->
<svg version="1.1" id="Capa_1" xmlns="http://www.w3.org/2000/svg" xmlns:xlink="http://www.w3.org/1999/xlink" x="0px" y="0px"
	 viewBox="0 0 248.1 248.1" style="enable-background:new 0 0 248.1 248.1;" xml:space="preserve">
<style type="text/css">
	.st0{fill:#FFC200;}
</style>
<g>
	<path class="st0" d="M230.6,62.5h-27.8V17.1c0-4.1-3.4-7.5-7.5-7.5H52.8c-4.1,0-7.5,3.4-7.5,7.5v45.4H17.5C7.9,62.5,0,70.3,0,80
		v96.2c0,9.6,7.9,17.5,17.5,17.5h27.8v37.2c0,4.1,3.4,7.5,7.5,7.5h142.5c4.1,0,7.5-3.4,7.5-7.5v-37.2h27.8c9.6,0,17.5-7.9,17.5-17.5
		V80C248.1,70.3,240.2,62.5,230.6,62.5z M60.3,24.6h127.5v37.9H60.3V24.6z M187.8,223.4H60.3V149h127.5V223.4z M233.1,176.2
		c0,1.4-1.1,2.5-2.5,2.5h-27.8v-37.2c0-4.1-3.4-7.5-7.5-7.5H52.8c-4.1,0-7.5,3.4-7.5,7.5v37.2H17.5c-1.4,0-2.5-1.1-2.5-2.5V80
		c0-1.4,1.1-2.5,2.5-2.5h35.3h142.5h35.3c1.4,0,2.5,1.1,2.5,2.5L233.1,176.2L233.1,176.2z"/>
	<circle class="st0" cx="195.3" cy="105.8" r="10.7"/>
	<path class="st0" d="M158.2,163.8H89.9c-4.1,0-7.5,3.4-7.5,7.5s3.4,7.5,7.5,7.5h68.2c4.1,0,7.5-3.4,7.5-7.5
		C165.7,167.2,162.3,163.8,158.2,163.8z"/>
	<path class="st0" d="M158.2,193.6H89.9c-4.1,0-7.5,3.4-7.5,7.5s3.4,7.5,7.5,7.5h68.2c4.1,0,7.5-3.4,7.5-7.5
		S162.3,193.6,158.2,193.6z"/>
</g>
</svg>
