<?xml version="1.0" encoding="utf-8"?>
<!-- Generator: Adobe Illustrator 22.0.0, SVG Export Plug-In . SVG Version: 6.00 Build 0)  -->
<svg version="1.1" id="Calque_1" xmlns="http://www.w3.org/2000/svg" xmlns:xlink="http://www.w3.org/1999/xlink" x="0px" y="0px"
	 viewBox="0 0 481.9 566.9" style="enable-background:new 0 0 481.9 566.9;" xml:space="preserve">
<style type="text/css">
	.st0{fill:#FCC10A;}
</style>
<g>
	<path class="st0" d="M475.6,188.1c-0.1-1.4-0.4-2.8-0.9-4.2l-0.5-1.4c-0.9-1.9-1.9-3.5-3.3-4.8L306.5,13.2c-1.3-1.3-2.9-2.4-5-3.3
		c-0.3-0.2-0.7-0.3-1.3-0.5c-1.5-0.5-2.9-0.8-4.4-0.9L295,8.4H186.3c-39.1,0-70.9,31.8-70.9,70.9v9.5H77.1
		c-39.1,0-70.9,31.8-70.9,70.9v327.8c0,39.1,31.8,70.9,70.9,70.9h218.6c39.1,0,70.9-31.8,70.9-70.9v-9.5h38.4
		c39.1,0,70.9-31.8,70.9-70.9v-218L475.6,188.1z M311.3,63.9L420.3,173h-70.7c-21.1,0-38.4-17.2-38.4-38.4V63.9z M334.1,487.6
		c0,21.2-17.2,38.4-38.4,38.4H77.1c-21.2,0-38.4-17.2-38.4-38.4V159.7c0-21.2,17.2-38.4,38.4-38.4h92.5V215
		c0,39.1,31.8,70.9,70.9,70.9h93.6V487.6z M202,215v-70.7l109.1,109.1h-70.7C219.3,253.4,202,236.1,202,215L202,215z M443.3,407.2
		c0,21.2-17.2,38.4-38.4,38.4h-38.4v-176l-0.1-1.1c-0.1-1.4-0.3-2.8-0.8-4.2l-0.6-1.5c-0.9-1.9-1.9-3.4-3.2-4.7L197.3,93.6
		c-1.3-1.3-2.8-2.4-4.5-3.1c-0.4-0.2-0.9-0.4-1.6-0.6c-1.4-0.5-2.9-0.8-4.2-0.9v0l-1.1-0.2h-37.9v-9.5c0-21.2,17.2-38.4,38.4-38.4
		h92.5v93.6c0,39.1,31.8,70.9,70.8,70.9h93.6V407.2z M443.3,407.2"/>
	<path class="st0" d="M196,309c0-8.6-6.9-15.5-15.5-15.5c-8.6,0-15.5,6.9-15.5,15.5v55.7h-55.6c-8.6,0-15.5,7-15.5,15.5
		c0,8.6,7,15.5,15.5,15.5H165v55.6c0,8.6,6.9,15.5,15.5,15.5c8.6,0,15.5-6.9,15.5-15.5v-55.6h55.7c8.6,0,15.5-6.9,15.5-15.5
		c0-8.6-7-15.5-15.5-15.5H196V309z M196,309"/>
</g>
</svg>