<?xml version="1.0" encoding="utf-8"?>
<!-- Generator: Adobe Illustrator 22.0.0, SVG Export Plug-In . SVG Version: 6.00 Build 0)  -->
<svg version="1.1" id="Calque_1" xmlns="http://www.w3.org/2000/svg" xmlns:xlink="http://www.w3.org/1999/xlink" x="0px" y="0px"
	 viewBox="0 0 40 40" style="enable-background:new 0 0 40 40;" xml:space="preserve">
<style type="text/css">
	.st0{fill:#2E2E2E;}
</style>
<g>
	<g>
		<path class="st0" d="M0.4,5.1V2.7c0-0.5,0.4-0.9,0.9-0.9H9V0.9C9,0.4,9.4,0,9.9,0s0.9,0.4,0.9,0.9v0.7h15.3V0.9
			c0-0.5,0.4-0.9,0.9-0.9s0.9,0.4,0.9,0.9v0.7h8.1c0.5,0,0.9,0.4,0.9,0.9V5c0,0.5-0.4,0.9-0.9,0.9S35.3,5.5,35.3,5V3.6h-6.7v0.7
			c0,0.5-0.4,0.9-0.9,0.9s-0.9-0.4-0.9-0.9V3.6H11v0.7c0,0.5-0.4,0.9-0.9,0.9S9.1,4.8,9.1,4.3V3.6H2.4V5c0,0.5-0.4,0.9-0.9,0.9
			S0.4,5.7,0.4,5.1L0.4,5.1z M39.7,31.2c0,5-4,8.9-8.9,8.9s-8.9-4-8.9-8.9c0-3.8,2.4-7.1,5.8-8.3c-0.1-0.1-0.3-0.4-0.3-0.7
			c0-0.5,0.4-0.9,0.9-0.9h4.7c0.5,0,0.9,0.4,0.9,0.9c0,0.3-0.1,0.4-0.3,0.7c0.8,0.3,1.6,0.7,2.3,1.2l0.5-0.5c0.4-0.4,1.1-0.4,1.3,0
			c0.4,0.4,0.4,1.1,0,1.3l-0.4,0.5C38.9,27.1,39.7,29.1,39.7,31.2L39.7,31.2z M37.7,31.2c0-3.8-3.1-7-7-7s-7,3.1-7,7s3.1,7,7,7
			S37.7,35,37.7,31.2L37.7,31.2z M32,28.8l-0.4,0.4v-1.5c0-0.5-0.4-0.9-0.9-0.9s-0.9,0.4-0.9,0.9v3.9c0,0.1,0,0.3,0.1,0.4
			c0.1,0.1,0.1,0.3,0.3,0.3c0.1,0.1,0.3,0.1,0.3,0.3l0,0l0,0c0.1,0,0.3,0,0.4,0l0,0l0,0l0,0l0,0c0.1,0,0.3,0,0.4,0
			c0.1,0,0.3-0.1,0.3-0.1l2-2c0.4-0.4,0.4-1.1,0-1.3C33.1,28.4,32.4,28.4,32,28.8L32,28.8z M21.5,25.4c0,0.5-0.4,0.9-0.9,0.9h-0.8
			v7.3c0,0.5-0.4,0.9-0.9,0.9c0,0,0,0-0.1,0s0,0-0.1,0H1.5c-0.5,0-0.9-0.4-0.9-0.9V8.7c0-0.5,0.4-0.9,0.9-0.9h34.7
			c0.5,0,0.9,0.4,0.9,0.9v10.8c0,0.5-0.4,0.9-0.9,0.9s-0.9-0.4-0.9-0.9V18h-6.7v0.1c0,0.5-0.4,0.9-0.9,0.9s-0.9-0.4-0.9-0.9V18h-6.7
			v6.3h0.8C21.1,24.5,21.5,24.9,21.5,25.4L21.5,25.4z M9.1,26.4H2.4v6.2h6.7V26.4z M9.1,18H2.4v6.3h6.7V18z M17.8,26.4H11v6.2h6.7
			V26.4z M17.8,18H11v6.3h6.7V18z M19.8,12v4h6.7v-4c0-0.5,0.4-0.9,0.9-0.9c0.5,0,0.9,0.4,0.9,0.9v4h6.7V9.8H2.4V16h6.7v-4
			c0-0.5,0.4-0.9,0.9-0.9c0.5,0,0.9,0.4,0.9,0.9v4h6.7v-4c0-0.5,0.4-0.9,0.9-0.9S19.8,11.4,19.8,12L19.8,12z"/>
	</g>
</g>
</svg>