<?xml version="1.0" encoding="utf-8"?>
<!-- Generator: Adobe Illustrator 22.0.0, SVG Export Plug-In . SVG Version: 6.00 Build 0)  -->
<svg version="1.1" id="Calque_1" xmlns="http://www.w3.org/2000/svg" xmlns:xlink="http://www.w3.org/1999/xlink" x="0px" y="0px"
	 viewBox="0 0 40 30" style="enable-background:new 0 0 40 30;" xml:space="preserve">
<style type="text/css">
	.st0{fill:#2E2E2E;}
</style>
<path class="st0" d="M38.8,0H1.2C0.5,0,0,0.6,0,1.2v27.6C0,29.4,0.5,30,1.2,30h37.6c0.7,0,1.2-0.5,1.2-1.2V1.2C40,0.6,39.5,0,38.8,0
	z M22.5,19.3c0.3,0,0.7-0.1,0.8-0.4l8.2-8.2v1.3c0,0.7,0.5,1.2,1.2,1.2s1.2-0.5,1.2-1.2V7.9c0-0.7-0.5-1.2-1.2-1.2h-4.3
	c-0.7,0-1.2,0.5-1.2,1.2s0.5,1.2,1.2,1.2h1.3l-7.2,7.2l-4.7-4.7c-0.3-0.1-0.5-0.3-0.8-0.3c-0.3,0-0.7,0.1-0.8,0.4L2.4,25.4v-23h35.2
	v25H3.7L17,14.2l4.7,4.7C21.8,19.1,22.2,19.3,22.5,19.3z"/>
</svg>