<?xml version="1.0" encoding="utf-8"?>
<!-- Generator: Adobe Illustrator 22.0.0, SVG Export Plug-In . SVG Version: 6.00 Build 0)  -->
<svg version="1.1" id="Calque_1" xmlns="http://www.w3.org/2000/svg" xmlns:xlink="http://www.w3.org/1999/xlink" x="0px" y="0px"
	 viewBox="0 0 30 30" style="enable-background:new 0 0 30 30;" xml:space="preserve">
<style type="text/css">
	.st0{fill:#FFC200;}
</style>
<g>
	<path class="st0" d="M21.1,13.2H9.8c-0.4,0-0.7,0.3-0.7,0.7s0.3,0.7,0.7,0.7h11.3c0.4,0,0.7-0.3,0.7-0.7S21.5,13.2,21.1,13.2
		L21.1,13.2z"/>
	<path class="st0" d="M22.8,0H4.9c-0.6,0-1,0.5-1,1v3H3.7C3.3,4,2.9,4.3,2.9,4.8c0,0.4,0.3,0.7,0.7,0.7h0.2v3.7H3.7
		c-0.4,0-0.7,0.3-0.7,0.7s0.3,0.7,0.7,0.7h0.2v3.7H3.7c-0.4,0-0.7,0.3-0.7,0.7c0,0.4,0.3,0.7,0.7,0.7h0.2v3.7H3.7
		c-0.4,0-0.7,0.3-0.7,0.7s0.3,0.7,0.7,0.7h0.2v3.7H3.7c-0.4,0-0.7,0.3-0.7,0.7S3.3,26,3.7,26h0.2v3c0,0.6,0.5,1,1,1h17.9
		c1.9,0,3.4-1.5,3.4-3.4V3.4C26.2,1.5,24.7,0,22.8,0L22.8,0z M24.2,26.2c0,0.8-0.7,1.4-1.4,1.4H5.9v-2h0.2c0.4,0,0.7-0.3,0.7-0.7
		s-0.3-0.7-0.7-0.7H5.9v-3.7h0.2c0.4,0,0.7-0.3,0.7-0.7S6.5,19,6.1,19H5.9v-3.7h0.2c0.4,0,0.7-0.3,0.7-0.7c0-0.4-0.3-0.7-0.7-0.7
		H5.9v-3.7h0.2c0.4,0,0.7-0.3,0.7-0.7c0-0.4-0.3-0.7-0.7-0.7H5.9V5.4h0.2c0.4,0,0.7-0.3,0.7-0.7C6.8,4.3,6.5,4,6.1,4H5.9V2.1h16.9
		c0.8,0,1.4,0.7,1.4,1.4V26.2z"/>
	<path class="st0" d="M21.1,7.2H9.8c-0.4,0-0.7,0.3-0.7,0.7v3.5c0,0.4,0.3,0.7,0.7,0.7h11.3c0.4,0,0.7-0.3,0.7-0.7V7.9
		C21.9,7.4,21.5,7.2,21.1,7.2L21.1,7.2z M20.5,10.7h-10V8.5h9.9L20.5,10.7L20.5,10.7z"/>
</g>
</svg>
