<?xml version="1.0" encoding="utf-8"?>
<!-- Generator: Adobe Illustrator 22.0.0, SVG Export Plug-In . SVG Version: 6.00 Build 0)  -->
<svg version="1.1" id="Calque_1" xmlns="http://www.w3.org/2000/svg" xmlns:xlink="http://www.w3.org/1999/xlink" x="0px" y="0px"
	 viewBox="0 0 40 40" style="enable-background:new 0 0 40 40;" xml:space="preserve">
<style type="text/css">
	.st0{fill:#2E2E2E;}
</style>
<g>
	<path class="st0" d="M16,0H2.6C1.2,0,0,1.2,0,2.6V16c0,1.4,1.2,2.6,2.6,2.6H16c1.4,0,2.6-1.2,2.6-2.6V2.6C18.6,1.2,17.4,0,16,0z
		 M15.8,14c0,1-0.8,1.8-1.8,1.8H4.6c-1,0-1.8-0.8-1.8-1.8V4.6c0-1,0.8-1.8,1.8-1.8H14c1,0,1.8,0.8,1.8,1.8V14z"/>
	<path class="st0" d="M37.4,0H24c-1.4,0-2.6,1.2-2.6,2.6V16c0,1.4,1.2,2.6,2.6,2.6h13.3c1.4,0,2.6-1.2,2.6-2.6V2.6
		C40,1.2,38.8,0,37.4,0z M37.2,14c0,1-0.8,1.8-1.8,1.8H26c-1,0-1.8-0.8-1.8-1.8V4.6c0-1,0.8-1.8,1.8-1.8h9.3c1,0,1.8,0.8,1.8,1.8V14
		z"/>
	<path class="st0" d="M37.4,21.4H24c-1.4,0-2.6,1.2-2.6,2.6v13.3c0,1.4,1.2,2.6,2.6,2.6h13.3c1.4,0,2.6-1.2,2.6-2.6V24
		C40,22.6,38.8,21.4,37.4,21.4z M37.2,35.4c0,1-0.8,1.8-1.8,1.8H26c-1,0-1.8-0.8-1.8-1.8V26c0-1,0.8-1.8,1.8-1.8h9.3
		c1,0,1.8,0.8,1.8,1.8V35.4z"/>
	<path class="st0" d="M16,21.4H2.6C1.2,21.4,0,22.6,0,24v13.3C0,38.8,1.2,40,2.6,40H16c1.4,0,2.6-1.2,2.6-2.6V24
		C18.6,22.6,17.4,21.4,16,21.4z M15.8,35.4c0,1-0.8,1.8-1.8,1.8H4.6c-1,0-1.8-0.8-1.8-1.8V26c0-1,0.8-1.8,1.8-1.8H14
		c1,0,1.8,0.8,1.8,1.8V35.4z"/>
</g>
</svg>
