<?xml version="1.0" encoding="utf-8"?>
<!-- Generator: Adobe Illustrator 22.0.0, SVG Export Plug-In . SVG Version: 6.00 Build 0)  -->
<svg version="1.1" id="Calque_1" xmlns="http://www.w3.org/2000/svg" xmlns:xlink="http://www.w3.org/1999/xlink" x="0px" y="0px"
	 viewBox="0 0 40 40" style="enable-background:new 0 0 40 40;" xml:space="preserve">
<style type="text/css">
	.st0{fill:#2E2E2E;}
</style>
<g>
	<g>
		<path class="st0" d="M33.1,40h-10V30h-6.3v10H7c-2.1,0-3.9-1.8-3.9-3.9V22.5H2.3c-1,0-1.8-0.5-2.2-1.3c-0.1-0.3-0.4-1.4,0.7-2.4
			L18,2.2c1.1-1.1,3.1-1.1,4.2,0l17.2,16.5c1.1,1.1,0.8,2.1,0.7,2.4c-0.3,0.8-1.1,1.3-2.2,1.3h-0.9v13.6C36.9,38.2,35.1,40,33.1,40z
			 M25.2,37.9h7.9c0.9,0,1.7-0.8,1.7-1.8V20.3h3.1c0,0,0,0,0,0c0,0,0,0,0,0h0L20.7,3.8c-0.3-0.3-0.9-0.3-1.2,0L2.3,20.3c0,0,0,0,0,0
			c0,0,0,0,0,0h3v15.8c0,0.9,0.8,1.8,1.7,1.8h7.6v-10h10.6V37.9z"/>
	</g>
</g>
</svg>