<?xml version="1.0" encoding="utf-8"?>
<!-- Generator: Adobe Illustrator 22.0.0, SVG Export Plug-In . SVG Version: 6.00 Build 0)  -->
<svg version="1.1" id="Calque_1" xmlns="http://www.w3.org/2000/svg" xmlns:xlink="http://www.w3.org/1999/xlink" x="0px" y="0px"
	 viewBox="0 0 283.5 31.2" style="enable-background:new 0 0 283.5 31.2;" xml:space="preserve">
<style type="text/css">
	.st0{fill:#FFFFFF;}
	.st1{fill:none;stroke:#FFFFFF;stroke-width:0.5;stroke-miterlimit:10;}
</style>
<g>
	<path class="st0" d="M7.2,5.8v7.6c0,1.4,0.3,2.4,0.9,3.1c0.6,0.7,1.5,1.1,2.7,1.1c1.2,0,2.1-0.4,2.7-1.1c0.6-0.7,0.9-1.8,0.9-3.1
		V0.6h5v12.8c0,2-0.4,3.6-1.1,5c-0.8,1.3-1.8,2.4-3.1,3s-2.8,1-4.5,1c-1.7,0-3.1-0.3-4.4-1c-1.3-0.7-2.3-1.7-3-3
		c-0.7-1.4-1.1-3-1.1-5V5.8H7.2z"/>
	<path class="st0" d="M36.7,6.6c1.1,0.7,1.9,1.6,2.5,2.9c0.6,1.3,0.9,2.8,0.9,4.5c0,1.7-0.3,3.2-0.9,4.5c-0.6,1.3-1.5,2.3-2.5,2.9
		c-1.1,0.7-2.3,1-3.6,1c-1.3,0-2.3-0.3-3.2-0.9c-0.9-0.6-1.6-1.3-2-2.3v10.8h-5V5.8h5v3c0.4-1,1.1-1.8,2-2.3c0.9-0.6,2-0.9,3.2-0.9
		C34.4,5.6,35.6,6,36.7,6.6z M28.8,11.1c-0.7,0.7-1,1.7-1,2.9c0,1.2,0.3,2.2,1,2.9c0.7,0.7,1.5,1.1,2.6,1.1c1.1,0,1.9-0.4,2.6-1.1
		c0.7-0.7,1-1.7,1-2.9c0-1.3-0.3-2.2-1-2.9c-0.7-0.7-1.5-1.1-2.6-1.1C30.3,10,29.5,10.4,28.8,11.1z"/>
	<path class="st0" d="M53.5,22.4l-4.9-7v7h-5V0.6h5v12L53.5,6h5.9l-6.6,8.2l6.8,8.2H53.5z"/>
	<path class="st0" d="M70.9,6.6c0.9,0.6,1.6,1.3,2,2.3V6h5v16.4h-5v-3c-0.4,1-1.1,1.8-2,2.3c-0.9,0.6-2,0.9-3.2,0.9
		c-1.4,0-2.6-0.3-3.6-1c-1.1-0.7-1.9-1.7-2.5-2.9c-0.6-1.3-0.9-2.8-0.9-4.5c0-1.7,0.3-3.2,0.9-4.5c0.6-1.3,1.5-2.2,2.5-2.9
		c1.1-0.7,2.3-1,3.6-1C68.9,5.8,70,6.1,70.9,6.6z M66.7,11.3c-0.7,0.7-1,1.7-1,2.9c0,1.3,0.3,2.2,1,2.9c0.7,0.7,1.5,1.1,2.6,1.1
		c1.1,0,1.9-0.4,2.6-1.1c0.7-0.7,1-1.7,1-2.9c0-1.2-0.3-2.2-1-2.9c-0.7-0.7-1.5-1.1-2.6-1.1C68.2,10.2,67.3,10.6,66.7,11.3z"/>
	<path class="st0" d="M85.2,6l3.9,10.1L92.8,6h5.6L88.1,30.2h-5.5l3.9-8.4L79.5,6H85.2z"/>
</g>
<line class="st1" x1="110.2" y1="0.6" x2="110.2" y2="30.5"/>
<g>
	<path class="st0" d="M123.5,10.8v8.3h3.3v1.6h-5.3v-9.9H123.5z"/>
	<path class="st0" d="M131.5,20.9c-2.3,0-4-1.6-4-4.1c0-2.5,1.6-4.1,4-4.1c2.3,0,3.9,1.5,3.9,3.9c0,0.3,0,0.5-0.1,0.8h-5.8
		c0.1,1.2,0.9,1.8,1.9,1.8c0.9,0,1.3-0.4,1.6-1h2.1C134.7,19.7,133.4,20.9,131.5,20.9z M129.6,16h3.7c0-1-0.9-1.7-1.9-1.7
		C130.5,14.4,129.7,15,129.6,16z"/>
	<path class="st0" d="M144.7,10.7c2.2,0,4,1.2,4.7,3.2h-2.3c-0.5-1-1.3-1.4-2.4-1.4c-1.7,0-3,1.3-3,3.3c0,2,1.2,3.3,3,3.3
		c1.1,0,1.9-0.5,2.4-1.4h2.3c-0.7,2-2.5,3.2-4.7,3.2c-2.9,0-5-2.1-5-5.1S141.9,10.7,144.7,10.7z"/>
	<path class="st0" d="M151.1,10.2h2v3.6c0.5-0.7,1.4-1.1,2.4-1.1c1.8,0,3.1,1.2,3.1,3.4v4.6h-2v-4.4c0-1.3-0.7-1.9-1.7-1.9
		c-1.1,0-1.8,0.7-1.8,1.9v4.4h-2V10.2z"/>
	<path class="st0" d="M163.6,12.7c1.3,0,2.1,0.6,2.6,1.3v-1.1h2v7.9h-2v-1.2c-0.5,0.7-1.4,1.3-2.6,1.3c-2,0-3.6-1.6-3.6-4.1
		C160,14.3,161.6,12.7,163.6,12.7z M164.1,14.5c-1.1,0-2.1,0.8-2.1,2.3c0,1.5,1,2.3,2.1,2.3c1.1,0,2.1-0.8,2.1-2.3
		C166.2,15.3,165.2,14.5,164.1,14.5z"/>
	<path class="st0" d="M177.6,20.7h-2v-1c-0.5,0.7-1.4,1.1-2.3,1.1c-1.8,0-3.2-1.2-3.2-3.4v-4.6h2v4.3c0,1.3,0.7,1.9,1.7,1.9
		c1.1,0,1.8-0.7,1.8-1.9v-4.3h2V20.7z"/>
	<path class="st0" d="M179.8,14.5h-0.9v-1.6h0.9v-0.4c0-1.9,1.1-2.8,3.3-2.8v1.7c-1,0-1.3,0.3-1.3,1.2v0.3h1.4v1.6h-1.4v6.2h-2V14.5
		z"/>
	<path class="st0" d="M184.7,14.5h-0.9v-1.6h0.9v-0.4c0-1.9,1.1-2.8,3.3-2.8v1.7c-1,0-1.3,0.3-1.3,1.2v0.3h1.4v1.6h-1.4v6.2h-2V14.5
		z"/>
	<path class="st0" d="M192.5,12.7c1.3,0,2.1,0.6,2.6,1.3v-1.1h2v7.9h-2v-1.2c-0.5,0.7-1.4,1.3-2.6,1.3c-2,0-3.6-1.6-3.6-4.1
		C188.9,14.3,190.5,12.7,192.5,12.7z M193,14.5c-1.1,0-2.1,0.8-2.1,2.3c0,1.5,1,2.3,2.1,2.3c1.1,0,2.1-0.8,2.1-2.3
		C195.1,15.3,194.1,14.5,193,14.5z"/>
	<path class="st0" d="M202.1,12.7c1.2,0,2.1,0.6,2.6,1.3v-1.1h2v7.9c0,2.1-1.3,3.8-3.9,3.8c-2.2,0-3.8-1.1-4-2.9h2
		c0.2,0.7,0.9,1.2,1.9,1.2c1.1,0,1.9-0.6,1.9-2.1v-1.2c-0.5,0.7-1.4,1.3-2.6,1.3c-2,0-3.6-1.6-3.6-4.1
		C198.5,14.3,200.1,12.7,202.1,12.7z M202.6,14.5c-1.1,0-2.1,0.8-2.1,2.3c0,1.5,1,2.3,2.1,2.3c1.1,0,2.1-0.8,2.1-2.3
		C204.7,15.3,203.7,14.5,202.6,14.5z"/>
	<path class="st0" d="M212.1,20.9c-2.3,0-4-1.6-4-4.1c0-2.5,1.6-4.1,4-4.1c2.3,0,3.9,1.5,3.9,3.9c0,0.3,0,0.5-0.1,0.8h-5.8
		c0.1,1.2,0.9,1.8,1.9,1.8c0.9,0,1.3-0.4,1.6-1h2.1C215.4,19.7,214.1,20.9,212.1,20.9z M210.2,16h3.7c0-1-0.9-1.7-1.9-1.7
		C211.1,14.4,210.3,15,210.2,16z"/>
	<path class="st0" d="M223.8,20.9c-2,0-3.4-1.2-3.4-2.6h2c0.1,0.6,0.6,1.1,1.4,1.1c0.8,0,1.2-0.4,1.2-0.8c0-1.4-4.5-0.5-4.5-3.4
		c0-1.3,1.2-2.4,3.1-2.4c1.9,0,3.1,1,3.2,2.6H225c-0.1-0.6-0.5-1-1.3-1c-0.7,0-1.1,0.3-1.1,0.8c0,1.4,4.4,0.5,4.4,3.4
		C226.9,19.8,225.8,20.9,223.8,20.9z"/>
	<path class="st0" d="M228.4,10.7c0-0.7,0.5-1.2,1.2-1.2c0.7,0,1.2,0.5,1.2,1.2s-0.5,1.2-1.2,1.2C228.9,11.9,228.4,11.4,228.4,10.7z
		 M228.6,12.8h2v7.9h-2V12.8z"/>
	<path class="st0" d="M243.6,16.4c0-1.3-0.7-1.9-1.7-1.9c-1.1,0-1.8,0.7-1.8,1.9v4.4h-2v-4.4c0-1.3-0.7-1.9-1.7-1.9
		c-1.1,0-1.8,0.7-1.8,1.9v4.4h-2v-7.9h2v1c0.5-0.7,1.3-1.1,2.3-1.1c1.2,0,2.2,0.5,2.8,1.5c0.5-0.9,1.5-1.5,2.7-1.5
		c1.9,0,3.2,1.2,3.2,3.4v4.6h-2V16.4z"/>
	<path class="st0" d="M252,12.7c2,0,3.6,1.6,3.6,4c0,2.5-1.6,4.1-3.6,4.1c-1.2,0-2.1-0.6-2.6-1.3v4.9h-2V12.8h2V14
		C249.9,13.3,250.8,12.7,252,12.7z M251.5,14.5c-1.1,0-2.1,0.8-2.1,2.3c0,1.5,1,2.3,2.1,2.3c1.1,0,2.1-0.9,2.1-2.3
		C253.6,15.3,252.6,14.5,251.5,14.5z"/>
	<path class="st0" d="M257.1,10.2h2v10.5h-2V10.2z"/>
	<path class="st0" d="M260.8,10.7c0-0.7,0.5-1.2,1.2-1.2c0.7,0,1.2,0.5,1.2,1.2s-0.5,1.2-1.2,1.2C261.3,11.9,260.8,11.4,260.8,10.7z
		 M261,12.8h2v7.9h-2V12.8z"/>
	<path class="st0" d="M265.2,14.5h-0.9v-1.6h0.9v-0.4c0-1.9,1.1-2.8,3.3-2.8v1.7c-1,0-1.3,0.3-1.3,1.2v0.3h1.4v1.6h-1.4v6.2h-2V14.5
		z"/>
	<path class="st0" d="M269.7,10.7c0-0.7,0.5-1.2,1.2-1.2c0.7,0,1.2,0.5,1.2,1.2s-0.5,1.2-1.2,1.2C270.2,11.9,269.7,11.4,269.7,10.7z
		 M269.9,12.8h2v7.9h-2V12.8z"/>
	<path class="st0" d="M277.3,20.9c-2.3,0-4-1.6-4-4.1c0-2.5,1.6-4.1,4-4.1c2.3,0,3.9,1.5,3.9,3.9c0,0.3,0,0.5-0.1,0.8h-5.8
		c0.1,1.2,0.9,1.8,1.9,1.8c0.9,0,1.3-0.4,1.6-1h2.1C280.5,19.7,279.2,20.9,277.3,20.9z M275.4,16h3.7c0-1-0.9-1.7-1.9-1.7
		C276.3,14.4,275.5,15,275.4,16z M278.8,9.2v1.6l-3.3,1.5v-1.4L278.8,9.2z"/>
</g>
</svg>