<?xml version="1.0" encoding="utf-8"?>
<!-- Generator: Adobe Illustrator 22.0.0, SVG Export Plug-In . SVG Version: 6.00 Build 0)  -->
<svg version="1.1" id="Calque_1" xmlns="http://www.w3.org/2000/svg" xmlns:xlink="http://www.w3.org/1999/xlink" x="0px" y="0px"
	 viewBox="0 0 40 30" style="enable-background:new 0 0 40 30;" xml:space="preserve">
<style type="text/css">
	.st0{fill:#2E2E2E;}
</style>
<g>
	<g>
		<path class="st0" d="M32.5,27.7h-9.1c-1.1,0-1.6-0.8-1.6-1.6l0,0v-4c0-0.9,0.8-1.7,1.7-1.7l0,0L20,15.3l-3.7,4.9l0,0
			c0.9,0,1.7,0.8,1.7,1.7v4l0,0c0,0.8-0.7,1.6-1.6,1.6H7.5c-4.1,0-7.5-3.3-7.5-7.5c0-2.7,1.5-5.1,3.7-6.4c0.3-2,1.2-3.7,2.7-5.1
			c1.6-1.5,3.7-2.3,6-2.3c1.3,0,2.5,0.3,3.6,0.8c2-3.5,5.6-5.6,9.7-5.6c6.1,0,11.2,5.1,11.2,11.2c0,0.5,0,0.9-0.1,1.5
			c2,1.3,3.2,3.6,3.2,6.1C40,24.3,36.7,27.7,32.5,27.7z M24.1,25.4h8.4c2.8,0,5.1-2.3,5.1-5.1c0-1.9-1.1-3.6-2.7-4.5l-0.8-0.4
			l0.1-0.8c0.1-0.5,0.1-1.2,0.1-1.7c0-4.9-4-8.8-8.8-8.8c-3.5,0-6.7,2.1-8.1,5.3l-0.5,1.2l-1.2-0.8c-1.1-0.7-2.3-1.1-3.5-1.1
			c-3.3,0-6.1,2.7-6.4,6v0.7l-0.5,0.1c-1.9,0.8-2.9,2.7-2.9,4.7c0,2.8,2.3,5.1,5.1,5.1h8.4v-2.8h-1.2c-0.7,0-1.1-0.3-1.3-0.8
			c-0.3-0.5-0.1-1.1,0.1-1.6l5.2-7.1c0.3-0.4,0.8-0.7,1.3-0.7l0,0c0.5,0,0.9,0.3,1.3,0.7l5.2,7.1c0.4,0.5,0.4,1.1,0.1,1.6
			c-0.3,0.5-0.8,0.8-1.3,0.8h-1.2V25.4z"/>
	</g>
</g>
</svg>