<?xml version="1.0" encoding="utf-8"?>
<!-- Generator: Adobe Illustrator 22.0.0, SVG Export Plug-In . SVG Version: 6.00 Build 0)  -->
<svg version="1.1" id="Calque_1" xmlns="http://www.w3.org/2000/svg" xmlns:xlink="http://www.w3.org/1999/xlink" x="0px" y="0px"
	 viewBox="0 0 80 13" style="enable-background:new 0 0 80 13;" xml:space="preserve">
<style type="text/css">
	.st0{fill:#2E2E2E;}
</style>
<g>
	<g>
		<path class="st0" d="M2.1,2.5v3.2c0,0.6,0.1,1,0.4,1.3c0.3,0.3,0.6,0.5,1.1,0.5c0.5,0,0.9-0.2,1.1-0.5C5,6.7,5.1,6.2,5.1,5.7V0.3
			h2.1v5.3c0,0.8-0.2,1.5-0.5,2.1C6.4,8.3,6,8.7,5.4,9C4.9,9.3,4.2,9.4,3.5,9.4C2.8,9.4,2.2,9.3,1.7,9C1.2,8.7,0.7,8.3,0.4,7.7
			C0.1,7.2,0,6.5,0,5.7V2.5H2.1z"/>
		<path class="st0" d="M14.4,2.8c0.4,0.3,0.8,0.7,1.1,1.2c0.3,0.5,0.4,1.2,0.4,1.9c0,0.7-0.1,1.3-0.4,1.9c-0.3,0.5-0.6,0.9-1.1,1.2
			c-0.4,0.3-0.9,0.4-1.5,0.4c-0.5,0-1-0.1-1.3-0.4c-0.4-0.2-0.6-0.6-0.8-1v4.5H8.6V2.5h2.1v1.2c0.2-0.4,0.4-0.7,0.8-1
			c0.4-0.2,0.8-0.4,1.3-0.4C13.4,2.4,13.9,2.6,14.4,2.8z M11.1,4.7c-0.3,0.3-0.4,0.7-0.4,1.2c0,0.5,0.1,0.9,0.4,1.2
			c0.3,0.3,0.6,0.5,1.1,0.5c0.4,0,0.8-0.1,1.1-0.4c0.3-0.3,0.4-0.7,0.4-1.2c0-0.5-0.1-0.9-0.4-1.2c-0.3-0.3-0.6-0.4-1.1-0.4
			C11.7,4.2,11.4,4.4,11.1,4.7z"/>
		<path class="st0" d="M21.4,9.4l-2-2.9v2.9h-2.1V0.3h2.1v5l2-2.7h2.5L21.1,6l2.8,3.4H21.4z"/>
		<path class="st0" d="M28.6,2.8c0.4,0.2,0.7,0.6,0.8,1V2.6h2.1v6.8h-2.1V8.2c-0.2,0.4-0.5,0.7-0.8,1c-0.4,0.2-0.8,0.4-1.3,0.4
			c-0.6,0-1.1-0.1-1.5-0.4c-0.4-0.3-0.8-0.7-1.1-1.2c-0.3-0.5-0.4-1.2-0.4-1.9c0-0.7,0.1-1.3,0.4-1.9c0.3-0.5,0.6-0.9,1.1-1.2
			c0.4-0.3,0.9-0.4,1.5-0.4C27.8,2.5,28.2,2.6,28.6,2.8z M26.8,4.8c-0.3,0.3-0.4,0.7-0.4,1.2c0,0.5,0.1,0.9,0.4,1.2
			c0.3,0.3,0.6,0.4,1.1,0.4c0.4,0,0.8-0.2,1.1-0.5c0.3-0.3,0.4-0.7,0.4-1.2c0-0.5-0.1-0.9-0.4-1.2c-0.3-0.3-0.6-0.4-1.1-0.4
			C27.5,4.3,27.1,4.5,26.8,4.8z"/>
		<path class="st0" d="M34.6,2.6l1.6,4.2l1.5-4.2H40l-4.3,10.1h-2.3l1.6-3.5l-2.9-6.6H34.6z"/>
	</g>
	<g>
		<path class="st0" d="M43.5,0.3h1.2v9h-1.2V0.3z"/>
		<path class="st0" d="M56.9,5.3c0-1.4-0.8-2.2-1.9-2.2c-1.2,0-2,0.8-2,2.3v3.9h-1.2v-4c0-1.4-0.8-2.2-1.9-2.2c-1.2,0-2,0.8-2,2.3
			v3.9h-1.2V2.3h1.2v1c0.5-0.7,1.3-1.1,2.2-1.1c1.2,0,2.1,0.5,2.6,1.6c0.4-1,1.4-1.6,2.5-1.6c1.6,0,2.9,1,2.9,3v4.2h-1.2V5.3z"/>
		<path class="st0" d="M70.2,5.3c0-1.4-0.8-2.2-1.9-2.2c-1.2,0-2,0.8-2,2.3v3.9h-1.2v-4c0-1.4-0.8-2.2-1.9-2.2c-1.2,0-2,0.8-2,2.3
			v3.9H60V2.3h1.2v1c0.5-0.7,1.3-1.1,2.2-1.1c1.2,0,2.1,0.5,2.6,1.6c0.4-1,1.4-1.6,2.5-1.6c1.6,0,2.9,1,2.9,3v4.2h-1.2V5.3z"/>
		<path class="st0" d="M76.4,9.5c-2,0-3.5-1.4-3.5-3.7c0-2.2,1.6-3.6,3.6-3.6c2,0,3.6,1.4,3.6,3.6C80,8,78.4,9.5,76.4,9.5z
			 M76.4,8.4c1.2,0,2.4-0.8,2.4-2.6c0-1.8-1.2-2.6-2.4-2.6c-1.2,0-2.4,0.8-2.4,2.6C74.1,7.6,75.2,8.4,76.4,8.4z"/>
	</g>
</g>
</svg>
